solid CATIA STL
  facet normal  0.000000e+000  0.000000e+000 -1.000000e+000
    outer loop
      vertex  0.000000e+000  2.500000e-001  0.000000e+000
      vertex  3.500000e+000  5.000000e-001  0.000000e+000
      vertex  2.500000e-001  0.000000e+000  0.000000e+000
    endloop
  endfacet
  facet normal  0.000000e+000  0.000000e+000 -1.000000e+000
    outer loop
      vertex  2.500000e-001  0.000000e+000  0.000000e+000
      vertex  3.500000e+000  5.000000e-001  0.000000e+000
      vertex  4.000000e+000  2.500000e-001  0.000000e+000
    endloop
  endfacet
  facet normal  0.000000e+000  0.000000e+000 -1.000000e+000
    outer loop
      vertex  2.500000e-001  0.000000e+000  0.000000e+000
      vertex  4.000000e+000  2.500000e-001  0.000000e+000
      vertex  3.750000e+000  0.000000e+000  0.000000e+000
    endloop
  endfacet
  facet normal  0.000000e+000  0.000000e+000 -1.000000e+000
    outer loop
      vertex  3.500000e+000  5.000000e-001  0.000000e+000
      vertex  0.000000e+000  2.500000e-001  0.000000e+000
      vertex  5.000000e-001  5.000000e-001  0.000000e+000
    endloop
  endfacet
  facet normal  -0.000000e+000  0.000000e+000 -1.000000e+000
    outer loop
      vertex  5.000000e-001  5.000000e-001  0.000000e+000
      vertex  0.000000e+000  2.500000e-001  0.000000e+000
      vertex  0.000000e+000  3.750000e+000  0.000000e+000
    endloop
  endfacet
  facet normal  0.000000e+000  0.000000e+000 -1.000000e+000
    outer loop
      vertex  5.000000e-001  5.000000e-001  0.000000e+000
      vertex  0.000000e+000  3.750000e+000  0.000000e+000
      vertex  5.000000e-001  3.500000e+000  0.000000e+000
    endloop
  endfacet
  facet normal  0.000000e+000  0.000000e+000 -1.000000e+000
    outer loop
      vertex  5.000000e-001  3.500000e+000  0.000000e+000
      vertex  0.000000e+000  3.750000e+000  0.000000e+000
      vertex  2.500000e-001  4.000000e+000  0.000000e+000
    endloop
  endfacet
  facet normal  0.000000e+000  0.000000e+000 -1.000000e+000
    outer loop
      vertex  5.000000e-001  3.500000e+000  0.000000e+000
      vertex  2.500000e-001  4.000000e+000  0.000000e+000
      vertex  3.500000e+000  3.500000e+000  0.000000e+000
    endloop
  endfacet
  facet normal  0.000000e+000  0.000000e+000 -1.000000e+000
    outer loop
      vertex  3.500000e+000  3.500000e+000  0.000000e+000
      vertex  2.500000e-001  4.000000e+000  0.000000e+000
      vertex  3.750000e+000  4.000000e+000  0.000000e+000
    endloop
  endfacet
  facet normal  0.000000e+000  -0.000000e+000 -1.000000e+000
    outer loop
      vertex  3.500000e+000  3.500000e+000  0.000000e+000
      vertex  3.750000e+000  4.000000e+000  0.000000e+000
      vertex  4.000000e+000  3.750000e+000  0.000000e+000
    endloop
  endfacet
  facet normal  0.000000e+000  0.000000e+000 -1.000000e+000
    outer loop
      vertex  3.500000e+000  5.000000e-001  0.000000e+000
      vertex  3.500000e+000  3.500000e+000  0.000000e+000
      vertex  4.000000e+000  2.500000e-001  0.000000e+000
    endloop
  endfacet
  facet normal  0.000000e+000  0.000000e+000 -1.000000e+000
    outer loop
      vertex  4.000000e+000  2.500000e-001  0.000000e+000
      vertex  3.500000e+000  3.500000e+000  0.000000e+000
      vertex  4.000000e+000  3.750000e+000  0.000000e+000
    endloop
  endfacet
  facet normal  0.000000e+000  0.000000e+000  1.000000e+000
    outer loop
      vertex  1.250000e+000  2.500000e-001  2.000000e+000
      vertex  2.750000e+000  2.500000e-001  2.000000e+000
      vertex  2.000000e+000  2.350000e+000  2.000000e+000
    endloop
  endfacet
  facet normal  0.000000e+000  -0.000000e+000  1.000000e+000
    outer loop
      vertex  2.500000e-001  0.000000e+000  2.000000e+000
      vertex  3.750000e+000  0.000000e+000  2.000000e+000
      vertex  3.750000e+000  2.500000e-001  2.000000e+000
    endloop
  endfacet
  facet normal  0.000000e+000  0.000000e+000  1.000000e+000
    outer loop
      vertex  2.500000e-001  0.000000e+000  2.000000e+000
      vertex  3.750000e+000  2.500000e-001  2.000000e+000
      vertex  2.750000e+000  2.500000e-001  2.000000e+000
    endloop
  endfacet
  facet normal  0.000000e+000  0.000000e+000  1.000000e+000
    outer loop
      vertex  2.500000e-001  0.000000e+000  2.000000e+000
      vertex  2.750000e+000  2.500000e-001  2.000000e+000
      vertex  1.250000e+000  2.500000e-001  2.000000e+000
    endloop
  endfacet
  facet normal  0.000000e+000  0.000000e+000  1.000000e+000
    outer loop
      vertex  2.500000e-001  0.000000e+000  2.000000e+000
      vertex  1.250000e+000  2.500000e-001  2.000000e+000
      vertex  2.500000e-001  2.500000e-001  2.000000e+000
    endloop
  endfacet
  facet normal  0.000000e+000  0.000000e+000  1.000000e+000
    outer loop
      vertex  2.500000e-001  0.000000e+000  2.000000e+000
      vertex  2.500000e-001  2.500000e-001  2.000000e+000
      vertex  0.000000e+000  2.500000e-001  2.000000e+000
    endloop
  endfacet
  facet normal  0.000000e+000  -0.000000e+000  1.000000e+000
    outer loop
      vertex  2.500000e-001  4.000000e+000  2.000000e+000
      vertex  1.500000e+000  3.750000e+000  2.000000e+000
      vertex  3.750000e+000  4.000000e+000  2.000000e+000
    endloop
  endfacet
  facet normal  0.000000e+000  0.000000e+000  1.000000e+000
    outer loop
      vertex  3.750000e+000  4.000000e+000  2.000000e+000
      vertex  1.500000e+000  3.750000e+000  2.000000e+000
      vertex  2.500000e+000  3.750000e+000  2.000000e+000
    endloop
  endfacet
  facet normal  0.000000e+000  0.000000e+000  1.000000e+000
    outer loop
      vertex  3.750000e+000  4.000000e+000  2.000000e+000
      vertex  2.500000e+000  3.750000e+000  2.000000e+000
      vertex  4.000000e+000  3.750000e+000  2.000000e+000
    endloop
  endfacet
  facet normal  0.000000e+000  0.000000e+000  1.000000e+000
    outer loop
      vertex  0.000000e+000  2.500000e-001  2.000000e+000
      vertex  2.500000e-001  2.500000e-001  2.000000e+000
      vertex  0.000000e+000  3.750000e+000  2.000000e+000
    endloop
  endfacet
  facet normal  -0.000000e+000  0.000000e+000  1.000000e+000
    outer loop
      vertex  0.000000e+000  3.750000e+000  2.000000e+000
      vertex  2.500000e-001  2.500000e-001  2.000000e+000
      vertex  1.500000e+000  3.750000e+000  2.000000e+000
    endloop
  endfacet
  facet normal  0.000000e+000  0.000000e+000  1.000000e+000
    outer loop
      vertex  0.000000e+000  3.750000e+000  2.000000e+000
      vertex  1.500000e+000  3.750000e+000  2.000000e+000
      vertex  2.500000e-001  4.000000e+000  2.000000e+000
    endloop
  endfacet
  facet normal  -0.000000e+000  0.000000e+000  1.000000e+000
    outer loop
      vertex  4.000000e+000  3.750000e+000  2.000000e+000
      vertex  2.500000e+000  3.750000e+000  2.000000e+000
      vertex  4.000000e+000  2.500000e-001  2.000000e+000
    endloop
  endfacet
  facet normal  0.000000e+000  0.000000e+000  1.000000e+000
    outer loop
      vertex  4.000000e+000  2.500000e-001  2.000000e+000
      vertex  2.500000e+000  3.750000e+000  2.000000e+000
      vertex  3.750000e+000  2.500000e-001  2.000000e+000
    endloop
  endfacet
  facet normal  -0.000000e+000  0.000000e+000  1.000000e+000
    outer loop
      vertex  4.000000e+000  2.500000e-001  2.000000e+000
      vertex  3.750000e+000  2.500000e-001  2.000000e+000
      vertex  3.750000e+000  0.000000e+000  2.000000e+000
    endloop
  endfacet
  facet normal -1.000000e+000  0.000000e+000  0.000000e+000
    outer loop
      vertex  0.000000e+000  3.750000e+000  2.000000e+000
      vertex  0.000000e+000  3.750000e+000  0.000000e+000
      vertex  0.000000e+000  2.500000e-001  2.000000e+000
    endloop
  endfacet
  facet normal -1.000000e+000  0.000000e+000  0.000000e+000
    outer loop
      vertex  0.000000e+000  2.500000e-001  2.000000e+000
      vertex  0.000000e+000  3.750000e+000  0.000000e+000
      vertex  0.000000e+000  2.500000e-001  0.000000e+000
    endloop
  endfacet
  facet normal  0.000000e+000  1.000000e+000  -0.000000e+000
    outer loop
      vertex  3.750000e+000  4.000000e+000  2.000000e+000
      vertex  3.750000e+000  4.000000e+000  0.000000e+000
      vertex  2.500000e-001  4.000000e+000  2.000000e+000
    endloop
  endfacet
  facet normal  0.000000e+000  1.000000e+000  0.000000e+000
    outer loop
      vertex  2.500000e-001  4.000000e+000  2.000000e+000
      vertex  3.750000e+000  4.000000e+000  0.000000e+000
      vertex  2.500000e-001  4.000000e+000  0.000000e+000
    endloop
  endfacet
  facet normal -7.071068e-001  7.071068e-001  0.000000e+000
    outer loop
      vertex  2.500000e-001  4.000000e+000  2.000000e+000
      vertex  2.500000e-001  4.000000e+000  0.000000e+000
      vertex  0.000000e+000  3.750000e+000  2.000000e+000
    endloop
  endfacet
  facet normal -7.071068e-001  7.071068e-001  0.000000e+000
    outer loop
      vertex  0.000000e+000  3.750000e+000  2.000000e+000
      vertex  2.500000e-001  4.000000e+000  0.000000e+000
      vertex  0.000000e+000  3.750000e+000  0.000000e+000
    endloop
  endfacet
  facet normal  0.000000e+000 -1.000000e+000  0.000000e+000
    outer loop
      vertex  2.500000e-001  0.000000e+000  2.000000e+000
      vertex  2.500000e-001  0.000000e+000  0.000000e+000
      vertex  3.750000e+000  0.000000e+000  2.000000e+000
    endloop
  endfacet
  facet normal  0.000000e+000 -1.000000e+000  -0.000000e+000
    outer loop
      vertex  3.750000e+000  0.000000e+000  2.000000e+000
      vertex  2.500000e-001  0.000000e+000  0.000000e+000
      vertex  3.750000e+000  0.000000e+000  0.000000e+000
    endloop
  endfacet
  facet normal -7.071068e-001 -7.071068e-001  -0.000000e+000
    outer loop
      vertex  2.500000e-001  0.000000e+000  0.000000e+000
      vertex  2.500000e-001  0.000000e+000  2.000000e+000
      vertex  0.000000e+000  2.500000e-001  0.000000e+000
    endloop
  endfacet
  facet normal -7.071068e-001 -7.071068e-001  0.000000e+000
    outer loop
      vertex  0.000000e+000  2.500000e-001  0.000000e+000
      vertex  2.500000e-001  0.000000e+000  2.000000e+000
      vertex  0.000000e+000  2.500000e-001  2.000000e+000
    endloop
  endfacet
  facet normal  1.000000e+000  0.000000e+000  0.000000e+000
    outer loop
      vertex  4.000000e+000  2.500000e-001  2.000000e+000
      vertex  4.000000e+000  2.500000e-001  0.000000e+000
      vertex  4.000000e+000  3.750000e+000  2.000000e+000
    endloop
  endfacet
  facet normal  1.000000e+000  0.000000e+000  0.000000e+000
    outer loop
      vertex  4.000000e+000  3.750000e+000  2.000000e+000
      vertex  4.000000e+000  2.500000e-001  0.000000e+000
      vertex  4.000000e+000  3.750000e+000  0.000000e+000
    endloop
  endfacet
  facet normal  7.071068e-001  7.071068e-001  0.000000e+000
    outer loop
      vertex  3.750000e+000  4.000000e+000  0.000000e+000
      vertex  3.750000e+000  4.000000e+000  2.000000e+000
      vertex  4.000000e+000  3.750000e+000  0.000000e+000
    endloop
  endfacet
  facet normal  7.071068e-001  7.071068e-001  -0.000000e+000
    outer loop
      vertex  4.000000e+000  3.750000e+000  0.000000e+000
      vertex  3.750000e+000  4.000000e+000  2.000000e+000
      vertex  4.000000e+000  3.750000e+000  2.000000e+000
    endloop
  endfacet
  facet normal  7.071068e-001 -7.071068e-001  0.000000e+000
    outer loop
      vertex  3.750000e+000  0.000000e+000  2.000000e+000
      vertex  3.750000e+000  0.000000e+000  0.000000e+000
      vertex  4.000000e+000  2.500000e-001  2.000000e+000
    endloop
  endfacet
  facet normal  7.071068e-001 -7.071068e-001  0.000000e+000
    outer loop
      vertex  4.000000e+000  2.500000e-001  2.000000e+000
      vertex  3.750000e+000  0.000000e+000  0.000000e+000
      vertex  4.000000e+000  2.500000e-001  0.000000e+000
    endloop
  endfacet
  facet normal  0.000000e+000  1.000000e+000  0.000000e+000
    outer loop
      vertex  5.000000e-001  5.000000e-001  5.000000e-001
      vertex  3.500000e+000  5.000000e-001  5.000000e-001
      vertex  5.000000e-001  5.000000e-001  0.000000e+000
    endloop
  endfacet
  facet normal  0.000000e+000  1.000000e+000  0.000000e+000
    outer loop
      vertex  5.000000e-001  5.000000e-001  0.000000e+000
      vertex  3.500000e+000  5.000000e-001  5.000000e-001
      vertex  3.500000e+000  5.000000e-001  0.000000e+000
    endloop
  endfacet
  facet normal -1.000000e+000  0.000000e+000  0.000000e+000
    outer loop
      vertex  3.500000e+000  3.500000e+000  5.000000e-001
      vertex  3.500000e+000  3.500000e+000  0.000000e+000
      vertex  3.500000e+000  5.000000e-001  5.000000e-001
    endloop
  endfacet
  facet normal -1.000000e+000  0.000000e+000  0.000000e+000
    outer loop
      vertex  3.500000e+000  5.000000e-001  5.000000e-001
      vertex  3.500000e+000  3.500000e+000  0.000000e+000
      vertex  3.500000e+000  5.000000e-001  0.000000e+000
    endloop
  endfacet
  facet normal  0.000000e+000 -1.000000e+000  0.000000e+000
    outer loop
      vertex  3.500000e+000  3.500000e+000  5.000000e-001
      vertex  5.000000e-001  3.500000e+000  5.000000e-001
      vertex  3.500000e+000  3.500000e+000  0.000000e+000
    endloop
  endfacet
  facet normal  0.000000e+000 -1.000000e+000  0.000000e+000
    outer loop
      vertex  3.500000e+000  3.500000e+000  0.000000e+000
      vertex  5.000000e-001  3.500000e+000  5.000000e-001
      vertex  5.000000e-001  3.500000e+000  0.000000e+000
    endloop
  endfacet
  facet normal  1.000000e+000  0.000000e+000  0.000000e+000
    outer loop
      vertex  5.000000e-001  5.000000e-001  5.000000e-001
      vertex  5.000000e-001  5.000000e-001  0.000000e+000
      vertex  5.000000e-001  3.500000e+000  5.000000e-001
    endloop
  endfacet
  facet normal  1.000000e+000  0.000000e+000  0.000000e+000
    outer loop
      vertex  5.000000e-001  3.500000e+000  5.000000e-001
      vertex  5.000000e-001  5.000000e-001  0.000000e+000
      vertex  5.000000e-001  3.500000e+000  0.000000e+000
    endloop
  endfacet
  facet normal  -0.000000e+000  0.000000e+000 -1.000000e+000
    outer loop
      vertex  5.000000e-001  3.500000e+000  5.000000e-001
      vertex  3.500000e+000  3.500000e+000  5.000000e-001
      vertex  5.000000e-001  5.000000e-001  5.000000e-001
    endloop
  endfacet
  facet normal  0.000000e+000  0.000000e+000 -1.000000e+000
    outer loop
      vertex  5.000000e-001  5.000000e-001  5.000000e-001
      vertex  3.500000e+000  3.500000e+000  5.000000e-001
      vertex  3.500000e+000  5.000000e-001  5.000000e-001
    endloop
  endfacet
  facet normal  9.417419e-001 -3.363364e-001  0.000000e+000
    outer loop
      vertex  2.500000e-001  2.500000e-001  1.500000e+000
      vertex  1.500000e+000  3.750000e+000  1.500000e+000
      vertex  2.500000e-001  2.500000e-001  2.000000e+000
    endloop
  endfacet
  facet normal  9.417419e-001 -3.363364e-001  0.000000e+000
    outer loop
      vertex  2.500000e-001  2.500000e-001  2.000000e+000
      vertex  1.500000e+000  3.750000e+000  1.500000e+000
      vertex  1.500000e+000  3.750000e+000  2.000000e+000
    endloop
  endfacet
  facet normal  0.000000e+000 -1.000000e+000  -0.000000e+000
    outer loop
      vertex  2.500000e+000  3.750000e+000  1.500000e+000
      vertex  2.500000e+000  3.750000e+000  2.000000e+000
      vertex  1.500000e+000  3.750000e+000  1.500000e+000
    endloop
  endfacet
  facet normal  0.000000e+000 -1.000000e+000  0.000000e+000
    outer loop
      vertex  1.500000e+000  3.750000e+000  1.500000e+000
      vertex  2.500000e+000  3.750000e+000  2.000000e+000
      vertex  1.500000e+000  3.750000e+000  2.000000e+000
    endloop
  endfacet
  facet normal -9.417419e-001 -3.363364e-001  -0.000000e+000
    outer loop
      vertex  3.750000e+000  2.500000e-001  1.500000e+000
      vertex  3.750000e+000  2.500000e-001  2.000000e+000
      vertex  2.500000e+000  3.750000e+000  1.500000e+000
    endloop
  endfacet
  facet normal -9.417419e-001 -3.363364e-001  0.000000e+000
    outer loop
      vertex  2.500000e+000  3.750000e+000  1.500000e+000
      vertex  3.750000e+000  2.500000e-001  2.000000e+000
      vertex  2.500000e+000  3.750000e+000  2.000000e+000
    endloop
  endfacet
  facet normal  0.000000e+000  1.000000e+000  0.000000e+000
    outer loop
      vertex  2.750000e+000  2.500000e-001  1.500000e+000
      vertex  2.750000e+000  2.500000e-001  2.000000e+000
      vertex  3.750000e+000  2.500000e-001  1.500000e+000
    endloop
  endfacet
  facet normal  0.000000e+000  1.000000e+000  -0.000000e+000
    outer loop
      vertex  3.750000e+000  2.500000e-001  1.500000e+000
      vertex  2.750000e+000  2.500000e-001  2.000000e+000
      vertex  3.750000e+000  2.500000e-001  2.000000e+000
    endloop
  endfacet
  facet normal  9.417419e-001  3.363364e-001  0.000000e+000
    outer loop
      vertex  2.000000e+000  2.350000e+000  1.500000e+000
      vertex  2.000000e+000  2.350000e+000  2.000000e+000
      vertex  2.750000e+000  2.500000e-001  1.500000e+000
    endloop
  endfacet
  facet normal  9.417419e-001  3.363364e-001  -0.000000e+000
    outer loop
      vertex  2.750000e+000  2.500000e-001  1.500000e+000
      vertex  2.000000e+000  2.350000e+000  2.000000e+000
      vertex  2.750000e+000  2.500000e-001  2.000000e+000
    endloop
  endfacet
  facet normal -9.417419e-001  3.363364e-001  0.000000e+000
    outer loop
      vertex  1.250000e+000  2.500000e-001  1.500000e+000
      vertex  1.250000e+000  2.500000e-001  2.000000e+000
      vertex  2.000000e+000  2.350000e+000  1.500000e+000
    endloop
  endfacet
  facet normal -9.417419e-001  3.363364e-001  0.000000e+000
    outer loop
      vertex  2.000000e+000  2.350000e+000  1.500000e+000
      vertex  1.250000e+000  2.500000e-001  2.000000e+000
      vertex  2.000000e+000  2.350000e+000  2.000000e+000
    endloop
  endfacet
  facet normal  0.000000e+000  1.000000e+000  0.000000e+000
    outer loop
      vertex  2.500000e-001  2.500000e-001  1.500000e+000
      vertex  2.500000e-001  2.500000e-001  2.000000e+000
      vertex  1.250000e+000  2.500000e-001  1.500000e+000
    endloop
  endfacet
  facet normal  0.000000e+000  1.000000e+000  -0.000000e+000
    outer loop
      vertex  1.250000e+000  2.500000e-001  1.500000e+000
      vertex  2.500000e-001  2.500000e-001  2.000000e+000
      vertex  1.250000e+000  2.500000e-001  2.000000e+000
    endloop
  endfacet
  facet normal  0.000000e+000  0.000000e+000  1.000000e+000
    outer loop
      vertex  3.750000e+000  2.500000e-001  1.500000e+000
      vertex  2.000000e+000  2.350000e+000  1.500000e+000
      vertex  2.750000e+000  2.500000e-001  1.500000e+000
    endloop
  endfacet
  facet normal  0.000000e+000  0.000000e+000  1.000000e+000
    outer loop
      vertex  3.750000e+000  2.500000e-001  1.500000e+000
      vertex  2.500000e+000  3.750000e+000  1.500000e+000
      vertex  2.000000e+000  2.350000e+000  1.500000e+000
    endloop
  endfacet
  facet normal  0.000000e+000  -0.000000e+000  1.000000e+000
    outer loop
      vertex  2.000000e+000  2.350000e+000  1.500000e+000
      vertex  2.500000e+000  3.750000e+000  1.500000e+000
      vertex  1.500000e+000  3.750000e+000  1.500000e+000
    endloop
  endfacet
  facet normal  0.000000e+000  0.000000e+000  1.000000e+000
    outer loop
      vertex  2.000000e+000  2.350000e+000  1.500000e+000
      vertex  1.500000e+000  3.750000e+000  1.500000e+000
      vertex  1.250000e+000  2.500000e-001  1.500000e+000
    endloop
  endfacet
  facet normal  0.000000e+000  -0.000000e+000  1.000000e+000
    outer loop
      vertex  1.250000e+000  2.500000e-001  1.500000e+000
      vertex  1.500000e+000  3.750000e+000  1.500000e+000
      vertex  2.500000e-001  2.500000e-001  1.500000e+000
    endloop
  endfacet
endsolid CATIA STL
