solid CATIA STL
  facet normal  0.000000e+000  0.000000e+000 -1.000000e+000
    outer loop
      vertex  0.000000e+000  2.500000e-001  0.000000e+000
      vertex  3.500000e+000  5.000000e-001  0.000000e+000
      vertex  2.500000e-001  0.000000e+000  0.000000e+000
    endloop
  endfacet
  facet normal  0.000000e+000  0.000000e+000 -1.000000e+000
    outer loop
      vertex  2.500000e-001  0.000000e+000  0.000000e+000
      vertex  3.500000e+000  5.000000e-001  0.000000e+000
      vertex  4.000000e+000  2.500000e-001  0.000000e+000
    endloop
  endfacet
  facet normal  0.000000e+000  0.000000e+000 -1.000000e+000
    outer loop
      vertex  2.500000e-001  0.000000e+000  0.000000e+000
      vertex  4.000000e+000  2.500000e-001  0.000000e+000
      vertex  3.750000e+000  0.000000e+000  0.000000e+000
    endloop
  endfacet
  facet normal  0.000000e+000  0.000000e+000 -1.000000e+000
    outer loop
      vertex  3.500000e+000  5.000000e-001  0.000000e+000
      vertex  0.000000e+000  2.500000e-001  0.000000e+000
      vertex  5.000000e-001  5.000000e-001  0.000000e+000
    endloop
  endfacet
  facet normal  -0.000000e+000  0.000000e+000 -1.000000e+000
    outer loop
      vertex  5.000000e-001  5.000000e-001  0.000000e+000
      vertex  0.000000e+000  2.500000e-001  0.000000e+000
      vertex  0.000000e+000  3.750000e+000  0.000000e+000
    endloop
  endfacet
  facet normal  0.000000e+000  0.000000e+000 -1.000000e+000
    outer loop
      vertex  5.000000e-001  5.000000e-001  0.000000e+000
      vertex  0.000000e+000  3.750000e+000  0.000000e+000
      vertex  5.000000e-001  3.500000e+000  0.000000e+000
    endloop
  endfacet
  facet normal  0.000000e+000  0.000000e+000 -1.000000e+000
    outer loop
      vertex  5.000000e-001  3.500000e+000  0.000000e+000
      vertex  0.000000e+000  3.750000e+000  0.000000e+000
      vertex  2.500000e-001  4.000000e+000  0.000000e+000
    endloop
  endfacet
  facet normal  0.000000e+000  0.000000e+000 -1.000000e+000
    outer loop
      vertex  5.000000e-001  3.500000e+000  0.000000e+000
      vertex  2.500000e-001  4.000000e+000  0.000000e+000
      vertex  3.500000e+000  3.500000e+000  0.000000e+000
    endloop
  endfacet
  facet normal  0.000000e+000  0.000000e+000 -1.000000e+000
    outer loop
      vertex  3.500000e+000  3.500000e+000  0.000000e+000
      vertex  2.500000e-001  4.000000e+000  0.000000e+000
      vertex  3.750000e+000  4.000000e+000  0.000000e+000
    endloop
  endfacet
  facet normal  0.000000e+000  -0.000000e+000 -1.000000e+000
    outer loop
      vertex  3.500000e+000  3.500000e+000  0.000000e+000
      vertex  3.750000e+000  4.000000e+000  0.000000e+000
      vertex  4.000000e+000  3.750000e+000  0.000000e+000
    endloop
  endfacet
  facet normal  0.000000e+000  0.000000e+000 -1.000000e+000
    outer loop
      vertex  3.500000e+000  5.000000e-001  0.000000e+000
      vertex  3.500000e+000  3.500000e+000  0.000000e+000
      vertex  4.000000e+000  2.500000e-001  0.000000e+000
    endloop
  endfacet
  facet normal  0.000000e+000  0.000000e+000 -1.000000e+000
    outer loop
      vertex  4.000000e+000  2.500000e-001  0.000000e+000
      vertex  3.500000e+000  3.500000e+000  0.000000e+000
      vertex  4.000000e+000  3.750000e+000  0.000000e+000
    endloop
  endfacet
  facet normal  -0.000000e+000  0.000000e+000  1.000000e+000
    outer loop
      vertex  2.500000e-001  4.000000e+000  2.000000e+000
      vertex  0.000000e+000  3.750000e+000  2.000000e+000
      vertex  1.817075e+000  3.740413e+000  2.000000e+000
    endloop
  endfacet
  facet normal  0.000000e+000  -0.000000e+000  1.000000e+000
    outer loop
      vertex  2.500000e-001  4.000000e+000  2.000000e+000
      vertex  1.817075e+000  3.740413e+000  2.000000e+000
      vertex  2.182925e+000  3.740413e+000  2.000000e+000
    endloop
  endfacet
  facet normal  0.000000e+000  -0.000000e+000  9.999999e-001
    outer loop
      vertex  2.500000e-001  4.000000e+000  2.000000e+000
      vertex  2.182925e+000  3.740413e+000  2.000000e+000
      vertex  4.000000e+000  3.750000e+000  2.000000e+000
    endloop
  endfacet
  facet normal  0.000000e+000  0.000000e+000  1.000000e+000
    outer loop
      vertex  2.500000e-001  4.000000e+000  2.000000e+000
      vertex  4.000000e+000  3.750000e+000  2.000000e+000
      vertex  3.750000e+000  4.000000e+000  2.000000e+000
    endloop
  endfacet
  facet normal  0.000000e+000  -0.000000e+000  1.000000e+000
    outer loop
      vertex  2.500000e-001  0.000000e+000  2.000000e+000
      vertex  3.750000e+000  0.000000e+000  2.000000e+000
      vertex  4.000000e+000  2.500000e-001  2.000000e+000
    endloop
  endfacet
  facet normal  0.000000e+000  0.000000e+000  1.000000e+000
    outer loop
      vertex  2.500000e-001  0.000000e+000  2.000000e+000
      vertex  4.000000e+000  2.500000e-001  2.000000e+000
      vertex  2.182925e+000  2.595867e-001  2.000000e+000
    endloop
  endfacet
  facet normal  0.000000e+000  0.000000e+000  1.000000e+000
    outer loop
      vertex  2.500000e-001  0.000000e+000  2.000000e+000
      vertex  2.182925e+000  2.595867e-001  2.000000e+000
      vertex  1.817075e+000  2.595867e-001  2.000000e+000
    endloop
  endfacet
  facet normal  0.000000e+000  0.000000e+000  1.000000e+000
    outer loop
      vertex  2.500000e-001  0.000000e+000  2.000000e+000
      vertex  1.817075e+000  2.595867e-001  2.000000e+000
      vertex  0.000000e+000  2.500000e-001  2.000000e+000
    endloop
  endfacet
  facet normal  0.000000e+000  0.000000e+000  1.000000e+000
    outer loop
      vertex  0.000000e+000  2.500000e-001  2.000000e+000
      vertex  1.817075e+000  2.595867e-001  2.000000e+000
      vertex  1.459220e+000  3.356511e-001  2.000000e+000
    endloop
  endfacet
  facet normal  0.000000e+000  0.000000e+000  1.000000e+000
    outer loop
      vertex  0.000000e+000  2.500000e-001  2.000000e+000
      vertex  1.459220e+000  3.356511e-001  2.000000e+000
      vertex  1.125000e+000  4.844556e-001  2.000000e+000
    endloop
  endfacet
  facet normal  0.000000e+000  0.000000e+000  9.999999e-001
    outer loop
      vertex  0.000000e+000  2.500000e-001  2.000000e+000
      vertex  1.125000e+000  4.844556e-001  2.000000e+000
      vertex  8.290215e-001  6.994966e-001  2.000000e+000
    endloop
  endfacet
  facet normal  0.000000e+000  0.000000e+000  9.999999e-001
    outer loop
      vertex  0.000000e+000  2.500000e-001  2.000000e+000
      vertex  8.290215e-001  6.994966e-001  2.000000e+000
      vertex  5.842202e-001  9.713758e-001  2.000000e+000
    endloop
  endfacet
  facet normal  0.000000e+000  0.000000e+000  1.000000e+000
    outer loop
      vertex  0.000000e+000  2.500000e-001  2.000000e+000
      vertex  5.842202e-001  9.713758e-001  2.000000e+000
      vertex  4.012955e-001  1.288211e+000  2.000000e+000
    endloop
  endfacet
  facet normal  0.000000e+000  0.000000e+000  1.000000e+000
    outer loop
      vertex  0.000000e+000  2.500000e-001  2.000000e+000
      vertex  4.012955e-001  1.288211e+000  2.000000e+000
      vertex  2.882417e-001  1.636155e+000  2.000000e+000
    endloop
  endfacet
  facet normal  0.000000e+000  0.000000e+000  9.999999e-001
    outer loop
      vertex  0.000000e+000  2.500000e-001  2.000000e+000
      vertex  2.882417e-001  1.636155e+000  2.000000e+000
      vertex  2.500000e-001  2.000000e+000  2.000000e+000
    endloop
  endfacet
  facet normal  0.000000e+000  -0.000000e+000  1.000000e+000
    outer loop
      vertex  0.000000e+000  2.500000e-001  2.000000e+000
      vertex  2.500000e-001  2.000000e+000  2.000000e+000
      vertex  2.882417e-001  2.363845e+000  2.000000e+000
    endloop
  endfacet
  facet normal  0.000000e+000  0.000000e+000  1.000000e+000
    outer loop
      vertex  0.000000e+000  3.750000e+000  2.000000e+000
      vertex  0.000000e+000  2.500000e-001  2.000000e+000
      vertex  2.882417e-001  2.363845e+000  2.000000e+000
    endloop
  endfacet
  facet normal  0.000000e+000  -0.000000e+000  1.000000e+000
    outer loop
      vertex  0.000000e+000  3.750000e+000  2.000000e+000
      vertex  2.882417e-001  2.363845e+000  2.000000e+000
      vertex  4.012955e-001  2.711789e+000  2.000000e+000
    endloop
  endfacet
  facet normal  0.000000e+000  -0.000000e+000  1.000000e+000
    outer loop
      vertex  0.000000e+000  3.750000e+000  2.000000e+000
      vertex  4.012955e-001  2.711789e+000  2.000000e+000
      vertex  5.842202e-001  3.028624e+000  2.000000e+000
    endloop
  endfacet
  facet normal  0.000000e+000  -0.000000e+000  1.000000e+000
    outer loop
      vertex  0.000000e+000  3.750000e+000  2.000000e+000
      vertex  5.842202e-001  3.028624e+000  2.000000e+000
      vertex  8.290215e-001  3.300503e+000  2.000000e+000
    endloop
  endfacet
  facet normal  0.000000e+000  -0.000000e+000  1.000000e+000
    outer loop
      vertex  0.000000e+000  3.750000e+000  2.000000e+000
      vertex  8.290215e-001  3.300503e+000  2.000000e+000
      vertex  1.125000e+000  3.515544e+000  2.000000e+000
    endloop
  endfacet
  facet normal  0.000000e+000  -0.000000e+000  1.000000e+000
    outer loop
      vertex  0.000000e+000  3.750000e+000  2.000000e+000
      vertex  1.125000e+000  3.515544e+000  2.000000e+000
      vertex  1.459220e+000  3.664349e+000  2.000000e+000
    endloop
  endfacet
  facet normal  0.000000e+000  -0.000000e+000  1.000000e+000
    outer loop
      vertex  0.000000e+000  3.750000e+000  2.000000e+000
      vertex  1.459220e+000  3.664349e+000  2.000000e+000
      vertex  1.817075e+000  3.740413e+000  2.000000e+000
    endloop
  endfacet
  facet normal  0.000000e+000  0.000000e+000  1.000000e+000
    outer loop
      vertex  4.000000e+000  2.500000e-001  2.000000e+000
      vertex  3.711758e+000  2.363845e+000  2.000000e+000
      vertex  3.750000e+000  2.000000e+000  2.000000e+000
    endloop
  endfacet
  facet normal  0.000000e+000  0.000000e+000  1.000000e+000
    outer loop
      vertex  4.000000e+000  2.500000e-001  2.000000e+000
      vertex  3.750000e+000  2.000000e+000  2.000000e+000
      vertex  3.711758e+000  1.636155e+000  2.000000e+000
    endloop
  endfacet
  facet normal  0.000000e+000  0.000000e+000  1.000000e+000
    outer loop
      vertex  4.000000e+000  2.500000e-001  2.000000e+000
      vertex  3.711758e+000  1.636155e+000  2.000000e+000
      vertex  3.598705e+000  1.288211e+000  2.000000e+000
    endloop
  endfacet
  facet normal  0.000000e+000  0.000000e+000  1.000000e+000
    outer loop
      vertex  4.000000e+000  2.500000e-001  2.000000e+000
      vertex  3.598705e+000  1.288211e+000  2.000000e+000
      vertex  3.415780e+000  9.713758e-001  2.000000e+000
    endloop
  endfacet
  facet normal  0.000000e+000  0.000000e+000  1.000000e+000
    outer loop
      vertex  4.000000e+000  2.500000e-001  2.000000e+000
      vertex  3.415780e+000  9.713758e-001  2.000000e+000
      vertex  3.170979e+000  6.994966e-001  2.000000e+000
    endloop
  endfacet
  facet normal  0.000000e+000  0.000000e+000  9.999999e-001
    outer loop
      vertex  4.000000e+000  2.500000e-001  2.000000e+000
      vertex  3.170979e+000  6.994966e-001  2.000000e+000
      vertex  2.875000e+000  4.844556e-001  2.000000e+000
    endloop
  endfacet
  facet normal  0.000000e+000  0.000000e+000  1.000000e+000
    outer loop
      vertex  4.000000e+000  2.500000e-001  2.000000e+000
      vertex  2.875000e+000  4.844556e-001  2.000000e+000
      vertex  2.540780e+000  3.356511e-001  2.000000e+000
    endloop
  endfacet
  facet normal  0.000000e+000  0.000000e+000  1.000000e+000
    outer loop
      vertex  4.000000e+000  2.500000e-001  2.000000e+000
      vertex  2.540780e+000  3.356511e-001  2.000000e+000
      vertex  2.182925e+000  2.595867e-001  2.000000e+000
    endloop
  endfacet
  facet normal  -0.000000e+000  0.000000e+000  1.000000e+000
    outer loop
      vertex  4.000000e+000  3.750000e+000  2.000000e+000
      vertex  2.182925e+000  3.740413e+000  2.000000e+000
      vertex  2.540780e+000  3.664349e+000  2.000000e+000
    endloop
  endfacet
  facet normal  -0.000000e+000  0.000000e+000  1.000000e+000
    outer loop
      vertex  4.000000e+000  3.750000e+000  2.000000e+000
      vertex  2.540780e+000  3.664349e+000  2.000000e+000
      vertex  2.875000e+000  3.515544e+000  2.000000e+000
    endloop
  endfacet
  facet normal  -0.000000e+000  0.000000e+000  1.000000e+000
    outer loop
      vertex  4.000000e+000  3.750000e+000  2.000000e+000
      vertex  2.875000e+000  3.515544e+000  2.000000e+000
      vertex  3.170979e+000  3.300503e+000  2.000000e+000
    endloop
  endfacet
  facet normal  -0.000000e+000  0.000000e+000  1.000000e+000
    outer loop
      vertex  4.000000e+000  3.750000e+000  2.000000e+000
      vertex  3.170979e+000  3.300503e+000  2.000000e+000
      vertex  3.415780e+000  3.028624e+000  2.000000e+000
    endloop
  endfacet
  facet normal  -0.000000e+000  0.000000e+000  1.000000e+000
    outer loop
      vertex  4.000000e+000  3.750000e+000  2.000000e+000
      vertex  3.415780e+000  3.028624e+000  2.000000e+000
      vertex  3.598705e+000  2.711789e+000  2.000000e+000
    endloop
  endfacet
  facet normal  -0.000000e+000  0.000000e+000  1.000000e+000
    outer loop
      vertex  4.000000e+000  3.750000e+000  2.000000e+000
      vertex  3.598705e+000  2.711789e+000  2.000000e+000
      vertex  3.711758e+000  2.363845e+000  2.000000e+000
    endloop
  endfacet
  facet normal  -0.000000e+000  0.000000e+000  1.000000e+000
    outer loop
      vertex  4.000000e+000  3.750000e+000  2.000000e+000
      vertex  3.711758e+000  2.363845e+000  2.000000e+000
      vertex  4.000000e+000  2.500000e-001  2.000000e+000
    endloop
  endfacet
  facet normal -1.000000e+000  0.000000e+000  0.000000e+000
    outer loop
      vertex  0.000000e+000  3.750000e+000  2.000000e+000
      vertex  0.000000e+000  3.750000e+000  0.000000e+000
      vertex  0.000000e+000  2.500000e-001  2.000000e+000
    endloop
  endfacet
  facet normal -1.000000e+000  0.000000e+000  0.000000e+000
    outer loop
      vertex  0.000000e+000  2.500000e-001  2.000000e+000
      vertex  0.000000e+000  3.750000e+000  0.000000e+000
      vertex  0.000000e+000  2.500000e-001  0.000000e+000
    endloop
  endfacet
  facet normal  0.000000e+000  1.000000e+000  -0.000000e+000
    outer loop
      vertex  3.750000e+000  4.000000e+000  2.000000e+000
      vertex  3.750000e+000  4.000000e+000  0.000000e+000
      vertex  2.500000e-001  4.000000e+000  2.000000e+000
    endloop
  endfacet
  facet normal  0.000000e+000  1.000000e+000  0.000000e+000
    outer loop
      vertex  2.500000e-001  4.000000e+000  2.000000e+000
      vertex  3.750000e+000  4.000000e+000  0.000000e+000
      vertex  2.500000e-001  4.000000e+000  0.000000e+000
    endloop
  endfacet
  facet normal -7.071068e-001  7.071068e-001  0.000000e+000
    outer loop
      vertex  2.500000e-001  4.000000e+000  2.000000e+000
      vertex  2.500000e-001  4.000000e+000  0.000000e+000
      vertex  0.000000e+000  3.750000e+000  2.000000e+000
    endloop
  endfacet
  facet normal -7.071068e-001  7.071068e-001  0.000000e+000
    outer loop
      vertex  0.000000e+000  3.750000e+000  2.000000e+000
      vertex  2.500000e-001  4.000000e+000  0.000000e+000
      vertex  0.000000e+000  3.750000e+000  0.000000e+000
    endloop
  endfacet
  facet normal  0.000000e+000 -1.000000e+000  0.000000e+000
    outer loop
      vertex  2.500000e-001  0.000000e+000  2.000000e+000
      vertex  2.500000e-001  0.000000e+000  0.000000e+000
      vertex  3.750000e+000  0.000000e+000  2.000000e+000
    endloop
  endfacet
  facet normal  0.000000e+000 -1.000000e+000  -0.000000e+000
    outer loop
      vertex  3.750000e+000  0.000000e+000  2.000000e+000
      vertex  2.500000e-001  0.000000e+000  0.000000e+000
      vertex  3.750000e+000  0.000000e+000  0.000000e+000
    endloop
  endfacet
  facet normal -7.071068e-001 -7.071068e-001  -0.000000e+000
    outer loop
      vertex  2.500000e-001  0.000000e+000  0.000000e+000
      vertex  2.500000e-001  0.000000e+000  2.000000e+000
      vertex  0.000000e+000  2.500000e-001  0.000000e+000
    endloop
  endfacet
  facet normal -7.071068e-001 -7.071068e-001  0.000000e+000
    outer loop
      vertex  0.000000e+000  2.500000e-001  0.000000e+000
      vertex  2.500000e-001  0.000000e+000  2.000000e+000
      vertex  0.000000e+000  2.500000e-001  2.000000e+000
    endloop
  endfacet
  facet normal  1.000000e+000  0.000000e+000  0.000000e+000
    outer loop
      vertex  4.000000e+000  2.500000e-001  2.000000e+000
      vertex  4.000000e+000  2.500000e-001  0.000000e+000
      vertex  4.000000e+000  3.750000e+000  2.000000e+000
    endloop
  endfacet
  facet normal  1.000000e+000  0.000000e+000  0.000000e+000
    outer loop
      vertex  4.000000e+000  3.750000e+000  2.000000e+000
      vertex  4.000000e+000  2.500000e-001  0.000000e+000
      vertex  4.000000e+000  3.750000e+000  0.000000e+000
    endloop
  endfacet
  facet normal  7.071068e-001  7.071068e-001  0.000000e+000
    outer loop
      vertex  3.750000e+000  4.000000e+000  0.000000e+000
      vertex  3.750000e+000  4.000000e+000  2.000000e+000
      vertex  4.000000e+000  3.750000e+000  0.000000e+000
    endloop
  endfacet
  facet normal  7.071068e-001  7.071068e-001  -0.000000e+000
    outer loop
      vertex  4.000000e+000  3.750000e+000  0.000000e+000
      vertex  3.750000e+000  4.000000e+000  2.000000e+000
      vertex  4.000000e+000  3.750000e+000  2.000000e+000
    endloop
  endfacet
  facet normal  7.071068e-001 -7.071068e-001  0.000000e+000
    outer loop
      vertex  3.750000e+000  0.000000e+000  2.000000e+000
      vertex  3.750000e+000  0.000000e+000  0.000000e+000
      vertex  4.000000e+000  2.500000e-001  2.000000e+000
    endloop
  endfacet
  facet normal  7.071068e-001 -7.071068e-001  0.000000e+000
    outer loop
      vertex  4.000000e+000  2.500000e-001  2.000000e+000
      vertex  3.750000e+000  0.000000e+000  0.000000e+000
      vertex  4.000000e+000  2.500000e-001  0.000000e+000
    endloop
  endfacet
  facet normal  0.000000e+000  1.000000e+000  0.000000e+000
    outer loop
      vertex  5.000000e-001  5.000000e-001  5.000000e-001
      vertex  3.500000e+000  5.000000e-001  5.000000e-001
      vertex  5.000000e-001  5.000000e-001  0.000000e+000
    endloop
  endfacet
  facet normal  0.000000e+000  1.000000e+000  0.000000e+000
    outer loop
      vertex  5.000000e-001  5.000000e-001  0.000000e+000
      vertex  3.500000e+000  5.000000e-001  5.000000e-001
      vertex  3.500000e+000  5.000000e-001  0.000000e+000
    endloop
  endfacet
  facet normal -1.000000e+000  0.000000e+000  0.000000e+000
    outer loop
      vertex  3.500000e+000  3.500000e+000  5.000000e-001
      vertex  3.500000e+000  3.500000e+000  0.000000e+000
      vertex  3.500000e+000  5.000000e-001  5.000000e-001
    endloop
  endfacet
  facet normal -1.000000e+000  0.000000e+000  0.000000e+000
    outer loop
      vertex  3.500000e+000  5.000000e-001  5.000000e-001
      vertex  3.500000e+000  3.500000e+000  0.000000e+000
      vertex  3.500000e+000  5.000000e-001  0.000000e+000
    endloop
  endfacet
  facet normal  0.000000e+000 -1.000000e+000  0.000000e+000
    outer loop
      vertex  3.500000e+000  3.500000e+000  5.000000e-001
      vertex  5.000000e-001  3.500000e+000  5.000000e-001
      vertex  3.500000e+000  3.500000e+000  0.000000e+000
    endloop
  endfacet
  facet normal  0.000000e+000 -1.000000e+000  0.000000e+000
    outer loop
      vertex  3.500000e+000  3.500000e+000  0.000000e+000
      vertex  5.000000e-001  3.500000e+000  5.000000e-001
      vertex  5.000000e-001  3.500000e+000  0.000000e+000
    endloop
  endfacet
  facet normal  1.000000e+000  0.000000e+000  0.000000e+000
    outer loop
      vertex  5.000000e-001  5.000000e-001  5.000000e-001
      vertex  5.000000e-001  5.000000e-001  0.000000e+000
      vertex  5.000000e-001  3.500000e+000  5.000000e-001
    endloop
  endfacet
  facet normal  1.000000e+000  0.000000e+000  0.000000e+000
    outer loop
      vertex  5.000000e-001  3.500000e+000  5.000000e-001
      vertex  5.000000e-001  5.000000e-001  0.000000e+000
      vertex  5.000000e-001  3.500000e+000  0.000000e+000
    endloop
  endfacet
  facet normal  -0.000000e+000  0.000000e+000 -1.000000e+000
    outer loop
      vertex  5.000000e-001  3.500000e+000  5.000000e-001
      vertex  3.500000e+000  3.500000e+000  5.000000e-001
      vertex  5.000000e-001  5.000000e-001  5.000000e-001
    endloop
  endfacet
  facet normal  0.000000e+000  0.000000e+000 -1.000000e+000
    outer loop
      vertex  5.000000e-001  5.000000e-001  5.000000e-001
      vertex  3.500000e+000  3.500000e+000  5.000000e-001
      vertex  3.500000e+000  5.000000e-001  5.000000e-001
    endloop
  endfacet
  facet normal  0.000000e+000  0.000000e+000  1.000000e+000
    outer loop
      vertex  1.741181e+000  2.965926e+000  2.000000e+000
      vertex  2.258819e+000  2.965926e+000  2.000000e+000
      vertex  2.000000e+000  3.000000e+000  2.000000e+000
    endloop
  endfacet
  facet normal  -0.000000e+000  0.000000e+000  9.999999e-001
    outer loop
      vertex  2.258819e+000  2.965926e+000  2.000000e+000
      vertex  1.741181e+000  2.965926e+000  2.000000e+000
      vertex  2.500000e+000  2.866025e+000  2.000000e+000
    endloop
  endfacet
  facet normal  0.000000e+000  0.000000e+000  9.999999e-001
    outer loop
      vertex  2.500000e+000  2.866025e+000  2.000000e+000
      vertex  1.741181e+000  2.965926e+000  2.000000e+000
      vertex  1.500000e+000  2.866025e+000  2.000000e+000
    endloop
  endfacet
  facet normal  -0.000000e+000  0.000000e+000  1.000000e+000
    outer loop
      vertex  2.500000e+000  2.866025e+000  2.000000e+000
      vertex  1.500000e+000  2.866025e+000  2.000000e+000
      vertex  2.707107e+000  2.707107e+000  2.000000e+000
    endloop
  endfacet
  facet normal  0.000000e+000  0.000000e+000  1.000000e+000
    outer loop
      vertex  2.707107e+000  2.707107e+000  2.000000e+000
      vertex  1.500000e+000  2.866025e+000  2.000000e+000
      vertex  1.292893e+000  2.707107e+000  2.000000e+000
    endloop
  endfacet
  facet normal  -0.000000e+000  0.000000e+000  1.000000e+000
    outer loop
      vertex  2.707107e+000  2.707107e+000  2.000000e+000
      vertex  1.292893e+000  2.707107e+000  2.000000e+000
      vertex  2.866025e+000  2.500000e+000  2.000000e+000
    endloop
  endfacet
  facet normal  0.000000e+000  0.000000e+000  1.000000e+000
    outer loop
      vertex  2.866025e+000  2.500000e+000  2.000000e+000
      vertex  1.292893e+000  2.707107e+000  2.000000e+000
      vertex  1.133975e+000  2.500000e+000  2.000000e+000
    endloop
  endfacet
  facet normal  -0.000000e+000  0.000000e+000  1.000000e+000
    outer loop
      vertex  2.866025e+000  2.500000e+000  2.000000e+000
      vertex  1.133975e+000  2.500000e+000  2.000000e+000
      vertex  2.965926e+000  2.258819e+000  2.000000e+000
    endloop
  endfacet
  facet normal  0.000000e+000  0.000000e+000  1.000000e+000
    outer loop
      vertex  2.965926e+000  2.258819e+000  2.000000e+000
      vertex  1.133975e+000  2.500000e+000  2.000000e+000
      vertex  1.034074e+000  2.258819e+000  2.000000e+000
    endloop
  endfacet
  facet normal  -0.000000e+000  0.000000e+000  1.000000e+000
    outer loop
      vertex  2.965926e+000  2.258819e+000  2.000000e+000
      vertex  1.034074e+000  2.258819e+000  2.000000e+000
      vertex  3.000000e+000  2.000000e+000  2.000000e+000
    endloop
  endfacet
  facet normal  0.000000e+000  0.000000e+000  1.000000e+000
    outer loop
      vertex  3.000000e+000  2.000000e+000  2.000000e+000
      vertex  1.034074e+000  2.258819e+000  2.000000e+000
      vertex  1.000000e+000  2.000000e+000  2.000000e+000
    endloop
  endfacet
  facet normal  -0.000000e+000  0.000000e+000  1.000000e+000
    outer loop
      vertex  3.000000e+000  2.000000e+000  2.000000e+000
      vertex  1.000000e+000  2.000000e+000  2.000000e+000
      vertex  2.965926e+000  1.741181e+000  2.000000e+000
    endloop
  endfacet
  facet normal  0.000000e+000  0.000000e+000  1.000000e+000
    outer loop
      vertex  2.965926e+000  1.741181e+000  2.000000e+000
      vertex  1.000000e+000  2.000000e+000  2.000000e+000
      vertex  1.034074e+000  1.741181e+000  2.000000e+000
    endloop
  endfacet
  facet normal  -0.000000e+000  0.000000e+000  1.000000e+000
    outer loop
      vertex  2.965926e+000  1.741181e+000  2.000000e+000
      vertex  1.034074e+000  1.741181e+000  2.000000e+000
      vertex  2.866025e+000  1.500000e+000  2.000000e+000
    endloop
  endfacet
  facet normal  0.000000e+000  0.000000e+000  1.000000e+000
    outer loop
      vertex  2.866025e+000  1.500000e+000  2.000000e+000
      vertex  1.034074e+000  1.741181e+000  2.000000e+000
      vertex  1.133975e+000  1.500000e+000  2.000000e+000
    endloop
  endfacet
  facet normal  -0.000000e+000  0.000000e+000  1.000000e+000
    outer loop
      vertex  2.866025e+000  1.500000e+000  2.000000e+000
      vertex  1.133975e+000  1.500000e+000  2.000000e+000
      vertex  2.707107e+000  1.292893e+000  2.000000e+000
    endloop
  endfacet
  facet normal  0.000000e+000  0.000000e+000  1.000000e+000
    outer loop
      vertex  2.707107e+000  1.292893e+000  2.000000e+000
      vertex  1.133975e+000  1.500000e+000  2.000000e+000
      vertex  1.292893e+000  1.292893e+000  2.000000e+000
    endloop
  endfacet
  facet normal  -0.000000e+000  0.000000e+000  1.000000e+000
    outer loop
      vertex  2.707107e+000  1.292893e+000  2.000000e+000
      vertex  1.292893e+000  1.292893e+000  2.000000e+000
      vertex  2.500000e+000  1.133975e+000  2.000000e+000
    endloop
  endfacet
  facet normal  0.000000e+000  0.000000e+000  1.000000e+000
    outer loop
      vertex  2.500000e+000  1.133975e+000  2.000000e+000
      vertex  1.292893e+000  1.292893e+000  2.000000e+000
      vertex  1.500000e+000  1.133975e+000  2.000000e+000
    endloop
  endfacet
  facet normal  -0.000000e+000  0.000000e+000  1.000000e+000
    outer loop
      vertex  2.500000e+000  1.133975e+000  2.000000e+000
      vertex  1.500000e+000  1.133975e+000  2.000000e+000
      vertex  2.258819e+000  1.034074e+000  2.000000e+000
    endloop
  endfacet
  facet normal  0.000000e+000  0.000000e+000  1.000000e+000
    outer loop
      vertex  2.258819e+000  1.034074e+000  2.000000e+000
      vertex  1.500000e+000  1.133975e+000  2.000000e+000
      vertex  1.741181e+000  1.034074e+000  2.000000e+000
    endloop
  endfacet
  facet normal  -0.000000e+000  0.000000e+000  1.000000e+000
    outer loop
      vertex  2.258819e+000  1.034074e+000  2.000000e+000
      vertex  1.741181e+000  1.034074e+000  2.000000e+000
      vertex  2.000000e+000  1.000000e+000  2.000000e+000
    endloop
  endfacet
  facet normal -9.914448e-001  1.305262e-001  0.000000e+000
    outer loop
      vertex  1.000000e+000  2.000000e+000  1.500000e+000
      vertex  1.000000e+000  2.000000e+000  2.000000e+000
      vertex  1.034074e+000  2.258819e+000  1.500000e+000
    endloop
  endfacet
  facet normal -9.914448e-001  1.305262e-001  0.000000e+000
    outer loop
      vertex  1.034074e+000  2.258819e+000  1.500000e+000
      vertex  1.000000e+000  2.000000e+000  2.000000e+000
      vertex  1.034074e+000  2.258819e+000  2.000000e+000
    endloop
  endfacet
  facet normal -9.238796e-001  3.826833e-001  0.000000e+000
    outer loop
      vertex  1.034074e+000  2.258819e+000  1.500000e+000
      vertex  1.034074e+000  2.258819e+000  2.000000e+000
      vertex  1.133975e+000  2.500000e+000  1.500000e+000
    endloop
  endfacet
  facet normal -9.238796e-001  3.826833e-001  0.000000e+000
    outer loop
      vertex  1.133975e+000  2.500000e+000  1.500000e+000
      vertex  1.034074e+000  2.258819e+000  2.000000e+000
      vertex  1.133975e+000  2.500000e+000  2.000000e+000
    endloop
  endfacet
  facet normal -7.933534e-001  6.087613e-001  0.000000e+000
    outer loop
      vertex  1.133975e+000  2.500000e+000  1.500000e+000
      vertex  1.133975e+000  2.500000e+000  2.000000e+000
      vertex  1.292893e+000  2.707107e+000  1.500000e+000
    endloop
  endfacet
  facet normal -7.933534e-001  6.087613e-001  0.000000e+000
    outer loop
      vertex  1.292893e+000  2.707107e+000  1.500000e+000
      vertex  1.133975e+000  2.500000e+000  2.000000e+000
      vertex  1.292893e+000  2.707107e+000  2.000000e+000
    endloop
  endfacet
  facet normal -6.087613e-001  7.933534e-001  0.000000e+000
    outer loop
      vertex  1.292893e+000  2.707107e+000  1.500000e+000
      vertex  1.292893e+000  2.707107e+000  2.000000e+000
      vertex  1.500000e+000  2.866025e+000  1.500000e+000
    endloop
  endfacet
  facet normal -6.087613e-001  7.933534e-001  0.000000e+000
    outer loop
      vertex  1.500000e+000  2.866025e+000  1.500000e+000
      vertex  1.292893e+000  2.707107e+000  2.000000e+000
      vertex  1.500000e+000  2.866025e+000  2.000000e+000
    endloop
  endfacet
  facet normal -3.826837e-001  9.238794e-001  0.000000e+000
    outer loop
      vertex  1.500000e+000  2.866025e+000  1.500000e+000
      vertex  1.500000e+000  2.866025e+000  2.000000e+000
      vertex  1.741181e+000  2.965926e+000  1.500000e+000
    endloop
  endfacet
  facet normal -3.826837e-001  9.238794e-001  0.000000e+000
    outer loop
      vertex  1.741181e+000  2.965926e+000  1.500000e+000
      vertex  1.500000e+000  2.866025e+000  2.000000e+000
      vertex  1.741181e+000  2.965926e+000  2.000000e+000
    endloop
  endfacet
  facet normal -1.305258e-001  9.914449e-001  0.000000e+000
    outer loop
      vertex  1.741181e+000  2.965926e+000  1.500000e+000
      vertex  1.741181e+000  2.965926e+000  2.000000e+000
      vertex  2.000000e+000  3.000000e+000  1.500000e+000
    endloop
  endfacet
  facet normal -1.305258e-001  9.914449e-001  0.000000e+000
    outer loop
      vertex  2.000000e+000  3.000000e+000  1.500000e+000
      vertex  1.741181e+000  2.965926e+000  2.000000e+000
      vertex  2.000000e+000  3.000000e+000  2.000000e+000
    endloop
  endfacet
  facet normal  1.305258e-001  9.914449e-001  0.000000e+000
    outer loop
      vertex  2.000000e+000  3.000000e+000  1.500000e+000
      vertex  2.000000e+000  3.000000e+000  2.000000e+000
      vertex  2.258819e+000  2.965926e+000  1.500000e+000
    endloop
  endfacet
  facet normal  1.305258e-001  9.914449e-001  -0.000000e+000
    outer loop
      vertex  2.258819e+000  2.965926e+000  1.500000e+000
      vertex  2.000000e+000  3.000000e+000  2.000000e+000
      vertex  2.258819e+000  2.965926e+000  2.000000e+000
    endloop
  endfacet
  facet normal  3.826837e-001  9.238794e-001  0.000000e+000
    outer loop
      vertex  2.258819e+000  2.965926e+000  1.500000e+000
      vertex  2.258819e+000  2.965926e+000  2.000000e+000
      vertex  2.500000e+000  2.866025e+000  1.500000e+000
    endloop
  endfacet
  facet normal  3.826837e-001  9.238794e-001  -0.000000e+000
    outer loop
      vertex  2.500000e+000  2.866025e+000  1.500000e+000
      vertex  2.258819e+000  2.965926e+000  2.000000e+000
      vertex  2.500000e+000  2.866025e+000  2.000000e+000
    endloop
  endfacet
  facet normal  6.087613e-001  7.933534e-001  0.000000e+000
    outer loop
      vertex  2.500000e+000  2.866025e+000  1.500000e+000
      vertex  2.500000e+000  2.866025e+000  2.000000e+000
      vertex  2.707107e+000  2.707107e+000  1.500000e+000
    endloop
  endfacet
  facet normal  6.087613e-001  7.933534e-001  -0.000000e+000
    outer loop
      vertex  2.707107e+000  2.707107e+000  1.500000e+000
      vertex  2.500000e+000  2.866025e+000  2.000000e+000
      vertex  2.707107e+000  2.707107e+000  2.000000e+000
    endloop
  endfacet
  facet normal  7.933534e-001  6.087613e-001  0.000000e+000
    outer loop
      vertex  2.707107e+000  2.707107e+000  1.500000e+000
      vertex  2.707107e+000  2.707107e+000  2.000000e+000
      vertex  2.866025e+000  2.500000e+000  1.500000e+000
    endloop
  endfacet
  facet normal  7.933534e-001  6.087613e-001  -0.000000e+000
    outer loop
      vertex  2.866025e+000  2.500000e+000  1.500000e+000
      vertex  2.707107e+000  2.707107e+000  2.000000e+000
      vertex  2.866025e+000  2.500000e+000  2.000000e+000
    endloop
  endfacet
  facet normal  9.238794e-001  3.826837e-001  0.000000e+000
    outer loop
      vertex  2.866025e+000  2.500000e+000  1.500000e+000
      vertex  2.866025e+000  2.500000e+000  2.000000e+000
      vertex  2.965926e+000  2.258819e+000  1.500000e+000
    endloop
  endfacet
  facet normal  9.238794e-001  3.826837e-001  -0.000000e+000
    outer loop
      vertex  2.965926e+000  2.258819e+000  1.500000e+000
      vertex  2.866025e+000  2.500000e+000  2.000000e+000
      vertex  2.965926e+000  2.258819e+000  2.000000e+000
    endloop
  endfacet
  facet normal  9.914449e-001  1.305258e-001  0.000000e+000
    outer loop
      vertex  2.965926e+000  2.258819e+000  1.500000e+000
      vertex  2.965926e+000  2.258819e+000  2.000000e+000
      vertex  3.000000e+000  2.000000e+000  1.500000e+000
    endloop
  endfacet
  facet normal  9.914449e-001  1.305258e-001  -0.000000e+000
    outer loop
      vertex  3.000000e+000  2.000000e+000  1.500000e+000
      vertex  2.965926e+000  2.258819e+000  2.000000e+000
      vertex  3.000000e+000  2.000000e+000  2.000000e+000
    endloop
  endfacet
  facet normal  9.914449e-001 -1.305258e-001  0.000000e+000
    outer loop
      vertex  3.000000e+000  2.000000e+000  1.500000e+000
      vertex  3.000000e+000  2.000000e+000  2.000000e+000
      vertex  2.965926e+000  1.741181e+000  1.500000e+000
    endloop
  endfacet
  facet normal  9.914449e-001 -1.305258e-001  0.000000e+000
    outer loop
      vertex  2.965926e+000  1.741181e+000  1.500000e+000
      vertex  3.000000e+000  2.000000e+000  2.000000e+000
      vertex  2.965926e+000  1.741181e+000  2.000000e+000
    endloop
  endfacet
  facet normal  9.238794e-001 -3.826837e-001  0.000000e+000
    outer loop
      vertex  2.965926e+000  1.741181e+000  1.500000e+000
      vertex  2.965926e+000  1.741181e+000  2.000000e+000
      vertex  2.866025e+000  1.500000e+000  1.500000e+000
    endloop
  endfacet
  facet normal  9.238794e-001 -3.826837e-001  0.000000e+000
    outer loop
      vertex  2.866025e+000  1.500000e+000  1.500000e+000
      vertex  2.965926e+000  1.741181e+000  2.000000e+000
      vertex  2.866025e+000  1.500000e+000  2.000000e+000
    endloop
  endfacet
  facet normal  7.933534e-001 -6.087613e-001  0.000000e+000
    outer loop
      vertex  2.866025e+000  1.500000e+000  1.500000e+000
      vertex  2.866025e+000  1.500000e+000  2.000000e+000
      vertex  2.707107e+000  1.292893e+000  1.500000e+000
    endloop
  endfacet
  facet normal  7.933534e-001 -6.087613e-001  0.000000e+000
    outer loop
      vertex  2.707107e+000  1.292893e+000  1.500000e+000
      vertex  2.866025e+000  1.500000e+000  2.000000e+000
      vertex  2.707107e+000  1.292893e+000  2.000000e+000
    endloop
  endfacet
  facet normal  6.087613e-001 -7.933534e-001  0.000000e+000
    outer loop
      vertex  2.707107e+000  1.292893e+000  1.500000e+000
      vertex  2.707107e+000  1.292893e+000  2.000000e+000
      vertex  2.500000e+000  1.133975e+000  1.500000e+000
    endloop
  endfacet
  facet normal  6.087613e-001 -7.933534e-001  0.000000e+000
    outer loop
      vertex  2.500000e+000  1.133975e+000  1.500000e+000
      vertex  2.707107e+000  1.292893e+000  2.000000e+000
      vertex  2.500000e+000  1.133975e+000  2.000000e+000
    endloop
  endfacet
  facet normal  3.826833e-001 -9.238796e-001  0.000000e+000
    outer loop
      vertex  2.500000e+000  1.133975e+000  1.500000e+000
      vertex  2.500000e+000  1.133975e+000  2.000000e+000
      vertex  2.258819e+000  1.034074e+000  1.500000e+000
    endloop
  endfacet
  facet normal  3.826833e-001 -9.238796e-001  0.000000e+000
    outer loop
      vertex  2.258819e+000  1.034074e+000  1.500000e+000
      vertex  2.500000e+000  1.133975e+000  2.000000e+000
      vertex  2.258819e+000  1.034074e+000  2.000000e+000
    endloop
  endfacet
  facet normal  1.305262e-001 -9.914448e-001  0.000000e+000
    outer loop
      vertex  2.258819e+000  1.034074e+000  1.500000e+000
      vertex  2.258819e+000  1.034074e+000  2.000000e+000
      vertex  2.000000e+000  1.000000e+000  1.500000e+000
    endloop
  endfacet
  facet normal  1.305262e-001 -9.914448e-001  0.000000e+000
    outer loop
      vertex  2.000000e+000  1.000000e+000  1.500000e+000
      vertex  2.258819e+000  1.034074e+000  2.000000e+000
      vertex  2.000000e+000  1.000000e+000  2.000000e+000
    endloop
  endfacet
  facet normal -1.305262e-001 -9.914448e-001  -0.000000e+000
    outer loop
      vertex  2.000000e+000  1.000000e+000  1.500000e+000
      vertex  2.000000e+000  1.000000e+000  2.000000e+000
      vertex  1.741181e+000  1.034074e+000  1.500000e+000
    endloop
  endfacet
  facet normal -1.305262e-001 -9.914448e-001  0.000000e+000
    outer loop
      vertex  1.741181e+000  1.034074e+000  1.500000e+000
      vertex  2.000000e+000  1.000000e+000  2.000000e+000
      vertex  1.741181e+000  1.034074e+000  2.000000e+000
    endloop
  endfacet
  facet normal -3.826833e-001 -9.238796e-001  -0.000000e+000
    outer loop
      vertex  1.741181e+000  1.034074e+000  1.500000e+000
      vertex  1.741181e+000  1.034074e+000  2.000000e+000
      vertex  1.500000e+000  1.133975e+000  1.500000e+000
    endloop
  endfacet
  facet normal -3.826833e-001 -9.238796e-001  0.000000e+000
    outer loop
      vertex  1.500000e+000  1.133975e+000  1.500000e+000
      vertex  1.741181e+000  1.034074e+000  2.000000e+000
      vertex  1.500000e+000  1.133975e+000  2.000000e+000
    endloop
  endfacet
  facet normal -6.087613e-001 -7.933534e-001  -0.000000e+000
    outer loop
      vertex  1.500000e+000  1.133975e+000  1.500000e+000
      vertex  1.500000e+000  1.133975e+000  2.000000e+000
      vertex  1.292893e+000  1.292893e+000  1.500000e+000
    endloop
  endfacet
  facet normal -6.087613e-001 -7.933534e-001  0.000000e+000
    outer loop
      vertex  1.292893e+000  1.292893e+000  1.500000e+000
      vertex  1.500000e+000  1.133975e+000  2.000000e+000
      vertex  1.292893e+000  1.292893e+000  2.000000e+000
    endloop
  endfacet
  facet normal -7.933534e-001 -6.087613e-001  -0.000000e+000
    outer loop
      vertex  1.292893e+000  1.292893e+000  1.500000e+000
      vertex  1.292893e+000  1.292893e+000  2.000000e+000
      vertex  1.133975e+000  1.500000e+000  1.500000e+000
    endloop
  endfacet
  facet normal -7.933534e-001 -6.087613e-001  0.000000e+000
    outer loop
      vertex  1.133975e+000  1.500000e+000  1.500000e+000
      vertex  1.292893e+000  1.292893e+000  2.000000e+000
      vertex  1.133975e+000  1.500000e+000  2.000000e+000
    endloop
  endfacet
  facet normal -9.238796e-001 -3.826833e-001  -0.000000e+000
    outer loop
      vertex  1.133975e+000  1.500000e+000  1.500000e+000
      vertex  1.133975e+000  1.500000e+000  2.000000e+000
      vertex  1.034074e+000  1.741181e+000  1.500000e+000
    endloop
  endfacet
  facet normal -9.238796e-001 -3.826833e-001  0.000000e+000
    outer loop
      vertex  1.034074e+000  1.741181e+000  1.500000e+000
      vertex  1.133975e+000  1.500000e+000  2.000000e+000
      vertex  1.034074e+000  1.741181e+000  2.000000e+000
    endloop
  endfacet
  facet normal -9.914448e-001 -1.305262e-001  -0.000000e+000
    outer loop
      vertex  1.034074e+000  1.741181e+000  1.500000e+000
      vertex  1.034074e+000  1.741181e+000  2.000000e+000
      vertex  1.000000e+000  2.000000e+000  1.500000e+000
    endloop
  endfacet
  facet normal -9.914448e-001 -1.305262e-001  0.000000e+000
    outer loop
      vertex  1.000000e+000  2.000000e+000  1.500000e+000
      vertex  1.034074e+000  1.741181e+000  2.000000e+000
      vertex  1.000000e+000  2.000000e+000  2.000000e+000
    endloop
  endfacet
  facet normal -2.079116e-001  9.781476e-001  0.000000e+000
    outer loop
      vertex  2.182925e+000  2.595867e-001  1.500000e+000
      vertex  2.540780e+000  3.356511e-001  2.000000e+000
      vertex  2.540780e+000  3.356511e-001  1.500000e+000
    endloop
  endfacet
  facet normal -4.067368e-001  9.135454e-001  0.000000e+000
    outer loop
      vertex  2.540780e+000  3.356511e-001  1.500000e+000
      vertex  2.540780e+000  3.356511e-001  2.000000e+000
      vertex  2.875000e+000  4.844556e-001  2.000000e+000
    endloop
  endfacet
  facet normal -4.067368e-001  9.135454e-001  0.000000e+000
    outer loop
      vertex  2.540780e+000  3.356511e-001  1.500000e+000
      vertex  2.875000e+000  4.844556e-001  2.000000e+000
      vertex  2.875000e+000  4.844556e-001  1.500000e+000
    endloop
  endfacet
  facet normal -5.877853e-001  8.090170e-001  0.000000e+000
    outer loop
      vertex  2.875000e+000  4.844556e-001  1.500000e+000
      vertex  2.875000e+000  4.844556e-001  2.000000e+000
      vertex  3.170979e+000  6.994966e-001  2.000000e+000
    endloop
  endfacet
  facet normal -5.877853e-001  8.090170e-001  0.000000e+000
    outer loop
      vertex  2.875000e+000  4.844556e-001  1.500000e+000
      vertex  3.170979e+000  6.994966e-001  2.000000e+000
      vertex  3.170979e+000  6.994966e-001  1.500000e+000
    endloop
  endfacet
  facet normal -7.431447e-001  6.691307e-001  0.000000e+000
    outer loop
      vertex  3.170979e+000  6.994966e-001  1.500000e+000
      vertex  3.170979e+000  6.994966e-001  2.000000e+000
      vertex  3.415780e+000  9.713758e-001  2.000000e+000
    endloop
  endfacet
  facet normal -7.431447e-001  6.691307e-001  0.000000e+000
    outer loop
      vertex  3.170979e+000  6.994966e-001  1.500000e+000
      vertex  3.415780e+000  9.713758e-001  2.000000e+000
      vertex  3.415780e+000  9.713758e-001  1.500000e+000
    endloop
  endfacet
  facet normal -8.660254e-001  4.999999e-001  0.000000e+000
    outer loop
      vertex  3.415780e+000  9.713758e-001  1.500000e+000
      vertex  3.415780e+000  9.713758e-001  2.000000e+000
      vertex  3.598705e+000  1.288211e+000  2.000000e+000
    endloop
  endfacet
  facet normal -8.660254e-001  4.999999e-001  0.000000e+000
    outer loop
      vertex  3.415780e+000  9.713758e-001  1.500000e+000
      vertex  3.598705e+000  1.288211e+000  2.000000e+000
      vertex  3.598705e+000  1.288211e+000  1.500000e+000
    endloop
  endfacet
  facet normal -9.510565e-001  3.090171e-001  0.000000e+000
    outer loop
      vertex  3.598705e+000  1.288211e+000  1.500000e+000
      vertex  3.598705e+000  1.288211e+000  2.000000e+000
      vertex  3.711758e+000  1.636155e+000  2.000000e+000
    endloop
  endfacet
  facet normal -9.510565e-001  3.090171e-001  0.000000e+000
    outer loop
      vertex  3.598705e+000  1.288211e+000  1.500000e+000
      vertex  3.711758e+000  1.636155e+000  2.000000e+000
      vertex  3.711758e+000  1.636155e+000  1.500000e+000
    endloop
  endfacet
  facet normal -9.945220e-001  1.045283e-001  0.000000e+000
    outer loop
      vertex  3.711758e+000  1.636155e+000  1.500000e+000
      vertex  3.711758e+000  1.636155e+000  2.000000e+000
      vertex  3.750000e+000  2.000000e+000  2.000000e+000
    endloop
  endfacet
  facet normal -9.945220e-001  1.045283e-001  0.000000e+000
    outer loop
      vertex  3.711758e+000  1.636155e+000  1.500000e+000
      vertex  3.750000e+000  2.000000e+000  2.000000e+000
      vertex  3.750000e+000  2.000000e+000  1.500000e+000
    endloop
  endfacet
  facet normal -2.079116e-001  9.781476e-001  0.000000e+000
    outer loop
      vertex  2.540780e+000  3.356511e-001  2.000000e+000
      vertex  2.182925e+000  2.595867e-001  1.500000e+000
      vertex  2.182925e+000  2.595867e-001  2.000000e+000
    endloop
  endfacet
  facet normal  0.000000e+000  1.000000e+000  0.000000e+000
    outer loop
      vertex  2.182925e+000  2.595867e-001  2.000000e+000
      vertex  2.182925e+000  2.595867e-001  1.500000e+000
      vertex  1.817075e+000  2.595867e-001  1.500000e+000
    endloop
  endfacet
  facet normal  0.000000e+000  1.000000e+000  0.000000e+000
    outer loop
      vertex  2.182925e+000  2.595867e-001  2.000000e+000
      vertex  1.817075e+000  2.595867e-001  1.500000e+000
      vertex  1.817075e+000  2.595867e-001  2.000000e+000
    endloop
  endfacet
  facet normal  2.079117e-001  9.781476e-001  0.000000e+000
    outer loop
      vertex  1.817075e+000  2.595867e-001  2.000000e+000
      vertex  1.817075e+000  2.595867e-001  1.500000e+000
      vertex  1.459220e+000  3.356511e-001  1.500000e+000
    endloop
  endfacet
  facet normal  2.079117e-001  9.781476e-001  -0.000000e+000
    outer loop
      vertex  1.817075e+000  2.595867e-001  2.000000e+000
      vertex  1.459220e+000  3.356511e-001  1.500000e+000
      vertex  1.459220e+000  3.356511e-001  2.000000e+000
    endloop
  endfacet
  facet normal  4.067366e-001  9.135455e-001  0.000000e+000
    outer loop
      vertex  1.459220e+000  3.356511e-001  2.000000e+000
      vertex  1.459220e+000  3.356511e-001  1.500000e+000
      vertex  1.125000e+000  4.844556e-001  1.500000e+000
    endloop
  endfacet
  facet normal  4.067366e-001  9.135455e-001  -0.000000e+000
    outer loop
      vertex  1.459220e+000  3.356511e-001  2.000000e+000
      vertex  1.125000e+000  4.844556e-001  1.500000e+000
      vertex  1.125000e+000  4.844556e-001  2.000000e+000
    endloop
  endfacet
  facet normal  5.877853e-001  8.090170e-001  0.000000e+000
    outer loop
      vertex  1.125000e+000  4.844556e-001  2.000000e+000
      vertex  1.125000e+000  4.844556e-001  1.500000e+000
      vertex  8.290215e-001  6.994966e-001  1.500000e+000
    endloop
  endfacet
  facet normal  5.877853e-001  8.090170e-001  -0.000000e+000
    outer loop
      vertex  1.125000e+000  4.844556e-001  2.000000e+000
      vertex  8.290215e-001  6.994966e-001  1.500000e+000
      vertex  8.290215e-001  6.994966e-001  2.000000e+000
    endloop
  endfacet
  facet normal  7.431448e-001  6.691307e-001  0.000000e+000
    outer loop
      vertex  8.290215e-001  6.994966e-001  2.000000e+000
      vertex  8.290215e-001  6.994966e-001  1.500000e+000
      vertex  5.842202e-001  9.713758e-001  1.500000e+000
    endloop
  endfacet
  facet normal  7.431448e-001  6.691307e-001  -0.000000e+000
    outer loop
      vertex  8.290215e-001  6.994966e-001  2.000000e+000
      vertex  5.842202e-001  9.713758e-001  1.500000e+000
      vertex  5.842202e-001  9.713758e-001  2.000000e+000
    endloop
  endfacet
  facet normal  8.660254e-001  5.000000e-001  0.000000e+000
    outer loop
      vertex  5.842202e-001  9.713758e-001  2.000000e+000
      vertex  5.842202e-001  9.713758e-001  1.500000e+000
      vertex  4.012955e-001  1.288211e+000  1.500000e+000
    endloop
  endfacet
  facet normal  8.660254e-001  5.000000e-001  -0.000000e+000
    outer loop
      vertex  5.842202e-001  9.713758e-001  2.000000e+000
      vertex  4.012955e-001  1.288211e+000  1.500000e+000
      vertex  4.012955e-001  1.288211e+000  2.000000e+000
    endloop
  endfacet
  facet normal  9.510565e-001  3.090171e-001  0.000000e+000
    outer loop
      vertex  4.012955e-001  1.288211e+000  2.000000e+000
      vertex  4.012955e-001  1.288211e+000  1.500000e+000
      vertex  2.882417e-001  1.636155e+000  1.500000e+000
    endloop
  endfacet
  facet normal  9.510565e-001  3.090171e-001  -0.000000e+000
    outer loop
      vertex  4.012955e-001  1.288211e+000  2.000000e+000
      vertex  2.882417e-001  1.636155e+000  1.500000e+000
      vertex  2.882417e-001  1.636155e+000  2.000000e+000
    endloop
  endfacet
  facet normal  9.945219e-001  1.045284e-001  0.000000e+000
    outer loop
      vertex  2.882417e-001  1.636155e+000  2.000000e+000
      vertex  2.882417e-001  1.636155e+000  1.500000e+000
      vertex  2.500000e-001  2.000000e+000  1.500000e+000
    endloop
  endfacet
  facet normal  9.945219e-001  1.045284e-001  -0.000000e+000
    outer loop
      vertex  2.882417e-001  1.636155e+000  2.000000e+000
      vertex  2.500000e-001  2.000000e+000  1.500000e+000
      vertex  2.500000e-001  2.000000e+000  2.000000e+000
    endloop
  endfacet
  facet normal  2.079122e-001 -9.781475e-001  0.000000e+000
    outer loop
      vertex  1.817075e+000  3.740413e+000  1.500000e+000
      vertex  1.459220e+000  3.664349e+000  2.000000e+000
      vertex  1.459220e+000  3.664349e+000  1.500000e+000
    endloop
  endfacet
  facet normal  4.067366e-001 -9.135455e-001  0.000000e+000
    outer loop
      vertex  1.459220e+000  3.664349e+000  1.500000e+000
      vertex  1.459220e+000  3.664349e+000  2.000000e+000
      vertex  1.125000e+000  3.515544e+000  2.000000e+000
    endloop
  endfacet
  facet normal  4.067366e-001 -9.135455e-001  0.000000e+000
    outer loop
      vertex  1.459220e+000  3.664349e+000  1.500000e+000
      vertex  1.125000e+000  3.515544e+000  2.000000e+000
      vertex  1.125000e+000  3.515544e+000  1.500000e+000
    endloop
  endfacet
  facet normal  5.877851e-001 -8.090171e-001  0.000000e+000
    outer loop
      vertex  1.125000e+000  3.515544e+000  1.500000e+000
      vertex  1.125000e+000  3.515544e+000  2.000000e+000
      vertex  8.290215e-001  3.300503e+000  2.000000e+000
    endloop
  endfacet
  facet normal  5.877851e-001 -8.090171e-001  0.000000e+000
    outer loop
      vertex  1.125000e+000  3.515544e+000  1.500000e+000
      vertex  8.290215e-001  3.300503e+000  2.000000e+000
      vertex  8.290215e-001  3.300503e+000  1.500000e+000
    endloop
  endfacet
  facet normal  7.431447e-001 -6.691307e-001  0.000000e+000
    outer loop
      vertex  8.290215e-001  3.300503e+000  1.500000e+000
      vertex  8.290215e-001  3.300503e+000  2.000000e+000
      vertex  5.842202e-001  3.028624e+000  2.000000e+000
    endloop
  endfacet
  facet normal  7.431447e-001 -6.691307e-001  0.000000e+000
    outer loop
      vertex  8.290215e-001  3.300503e+000  1.500000e+000
      vertex  5.842202e-001  3.028624e+000  2.000000e+000
      vertex  5.842202e-001  3.028624e+000  1.500000e+000
    endloop
  endfacet
  facet normal  8.660256e-001 -4.999999e-001  0.000000e+000
    outer loop
      vertex  5.842202e-001  3.028624e+000  1.500000e+000
      vertex  5.842202e-001  3.028624e+000  2.000000e+000
      vertex  4.012955e-001  2.711789e+000  2.000000e+000
    endloop
  endfacet
  facet normal  8.660256e-001 -4.999999e-001  0.000000e+000
    outer loop
      vertex  5.842202e-001  3.028624e+000  1.500000e+000
      vertex  4.012955e-001  2.711789e+000  2.000000e+000
      vertex  4.012955e-001  2.711789e+000  1.500000e+000
    endloop
  endfacet
  facet normal  9.510565e-001 -3.090169e-001  0.000000e+000
    outer loop
      vertex  4.012955e-001  2.711789e+000  1.500000e+000
      vertex  4.012955e-001  2.711789e+000  2.000000e+000
      vertex  2.882417e-001  2.363845e+000  2.000000e+000
    endloop
  endfacet
  facet normal  9.510565e-001 -3.090169e-001  0.000000e+000
    outer loop
      vertex  4.012955e-001  2.711789e+000  1.500000e+000
      vertex  2.882417e-001  2.363845e+000  2.000000e+000
      vertex  2.882417e-001  2.363845e+000  1.500000e+000
    endloop
  endfacet
  facet normal  9.945218e-001 -1.045284e-001  0.000000e+000
    outer loop
      vertex  2.882417e-001  2.363845e+000  1.500000e+000
      vertex  2.882417e-001  2.363845e+000  2.000000e+000
      vertex  2.500000e-001  2.000000e+000  2.000000e+000
    endloop
  endfacet
  facet normal  9.945218e-001 -1.045284e-001  0.000000e+000
    outer loop
      vertex  2.882417e-001  2.363845e+000  1.500000e+000
      vertex  2.500000e-001  2.000000e+000  2.000000e+000
      vertex  2.500000e-001  2.000000e+000  1.500000e+000
    endloop
  endfacet
  facet normal  2.079122e-001 -9.781475e-001  0.000000e+000
    outer loop
      vertex  1.459220e+000  3.664349e+000  2.000000e+000
      vertex  1.817075e+000  3.740413e+000  1.500000e+000
      vertex  1.817075e+000  3.740413e+000  2.000000e+000
    endloop
  endfacet
  facet normal  0.000000e+000 -1.000000e+000  0.000000e+000
    outer loop
      vertex  1.817075e+000  3.740413e+000  2.000000e+000
      vertex  1.817075e+000  3.740413e+000  1.500000e+000
      vertex  2.182925e+000  3.740413e+000  1.500000e+000
    endloop
  endfacet
  facet normal  0.000000e+000 -1.000000e+000  0.000000e+000
    outer loop
      vertex  1.817075e+000  3.740413e+000  2.000000e+000
      vertex  2.182925e+000  3.740413e+000  1.500000e+000
      vertex  2.182925e+000  3.740413e+000  2.000000e+000
    endloop
  endfacet
  facet normal -2.079120e-001 -9.781474e-001  -0.000000e+000
    outer loop
      vertex  2.182925e+000  3.740413e+000  2.000000e+000
      vertex  2.182925e+000  3.740413e+000  1.500000e+000
      vertex  2.540780e+000  3.664349e+000  1.500000e+000
    endloop
  endfacet
  facet normal -2.079120e-001 -9.781474e-001  0.000000e+000
    outer loop
      vertex  2.182925e+000  3.740413e+000  2.000000e+000
      vertex  2.540780e+000  3.664349e+000  1.500000e+000
      vertex  2.540780e+000  3.664349e+000  2.000000e+000
    endloop
  endfacet
  facet normal -4.067367e-001 -9.135454e-001  -0.000000e+000
    outer loop
      vertex  2.540780e+000  3.664349e+000  2.000000e+000
      vertex  2.540780e+000  3.664349e+000  1.500000e+000
      vertex  2.875000e+000  3.515544e+000  1.500000e+000
    endloop
  endfacet
  facet normal -4.067367e-001 -9.135454e-001  0.000000e+000
    outer loop
      vertex  2.540780e+000  3.664349e+000  2.000000e+000
      vertex  2.875000e+000  3.515544e+000  1.500000e+000
      vertex  2.875000e+000  3.515544e+000  2.000000e+000
    endloop
  endfacet
  facet normal -5.877851e-001 -8.090171e-001  -0.000000e+000
    outer loop
      vertex  2.875000e+000  3.515544e+000  2.000000e+000
      vertex  2.875000e+000  3.515544e+000  1.500000e+000
      vertex  3.170979e+000  3.300503e+000  1.500000e+000
    endloop
  endfacet
  facet normal -5.877851e-001 -8.090171e-001  0.000000e+000
    outer loop
      vertex  2.875000e+000  3.515544e+000  2.000000e+000
      vertex  3.170979e+000  3.300503e+000  1.500000e+000
      vertex  3.170979e+000  3.300503e+000  2.000000e+000
    endloop
  endfacet
  facet normal -7.431446e-001 -6.691309e-001  -0.000000e+000
    outer loop
      vertex  3.170979e+000  3.300503e+000  2.000000e+000
      vertex  3.170979e+000  3.300503e+000  1.500000e+000
      vertex  3.415780e+000  3.028624e+000  1.500000e+000
    endloop
  endfacet
  facet normal -7.431446e-001 -6.691309e-001  0.000000e+000
    outer loop
      vertex  3.170979e+000  3.300503e+000  2.000000e+000
      vertex  3.415780e+000  3.028624e+000  1.500000e+000
      vertex  3.415780e+000  3.028624e+000  2.000000e+000
    endloop
  endfacet
  facet normal -8.660256e-001 -4.999998e-001  -0.000000e+000
    outer loop
      vertex  3.415780e+000  3.028624e+000  2.000000e+000
      vertex  3.415780e+000  3.028624e+000  1.500000e+000
      vertex  3.598705e+000  2.711789e+000  1.500000e+000
    endloop
  endfacet
  facet normal -8.660256e-001 -4.999998e-001  0.000000e+000
    outer loop
      vertex  3.415780e+000  3.028624e+000  2.000000e+000
      vertex  3.598705e+000  2.711789e+000  1.500000e+000
      vertex  3.598705e+000  2.711789e+000  2.000000e+000
    endloop
  endfacet
  facet normal -9.510565e-001 -3.090170e-001  -0.000000e+000
    outer loop
      vertex  3.598705e+000  2.711789e+000  2.000000e+000
      vertex  3.598705e+000  2.711789e+000  1.500000e+000
      vertex  3.711758e+000  2.363845e+000  1.500000e+000
    endloop
  endfacet
  facet normal -9.510565e-001 -3.090170e-001  0.000000e+000
    outer loop
      vertex  3.598705e+000  2.711789e+000  2.000000e+000
      vertex  3.711758e+000  2.363845e+000  1.500000e+000
      vertex  3.711758e+000  2.363845e+000  2.000000e+000
    endloop
  endfacet
  facet normal -9.945219e-001 -1.045283e-001  -0.000000e+000
    outer loop
      vertex  3.711758e+000  2.363845e+000  2.000000e+000
      vertex  3.711758e+000  2.363845e+000  1.500000e+000
      vertex  3.750000e+000  2.000000e+000  1.500000e+000
    endloop
  endfacet
  facet normal -9.945219e-001 -1.045283e-001  0.000000e+000
    outer loop
      vertex  3.711758e+000  2.363845e+000  2.000000e+000
      vertex  3.750000e+000  2.000000e+000  1.500000e+000
      vertex  3.750000e+000  2.000000e+000  2.000000e+000
    endloop
  endfacet
  facet normal  -0.000000e+000  -0.000000e+000  1.000000e+000
    outer loop
      vertex  5.842202e-001  9.713758e-001  1.500000e+000
      vertex  8.290215e-001  6.994966e-001  1.500000e+000
      vertex  1.125000e+000  4.844556e-001  1.500000e+000
    endloop
  endfacet
  facet normal  -0.000000e+000  -0.000000e+000  1.000000e+000
    outer loop
      vertex  5.842202e-001  9.713758e-001  1.500000e+000
      vertex  1.125000e+000  4.844556e-001  1.500000e+000
      vertex  1.459220e+000  3.356511e-001  1.500000e+000
    endloop
  endfacet
  facet normal  -0.000000e+000  -0.000000e+000  1.000000e+000
    outer loop
      vertex  5.842202e-001  9.713758e-001  1.500000e+000
      vertex  1.459220e+000  3.356511e-001  1.500000e+000
      vertex  1.817075e+000  2.595867e-001  1.500000e+000
    endloop
  endfacet
  facet normal  0.000000e+000  -0.000000e+000  1.000000e+000
    outer loop
      vertex  5.842202e-001  9.713758e-001  1.500000e+000
      vertex  1.817075e+000  2.595867e-001  1.500000e+000
      vertex  2.182925e+000  2.595867e-001  1.500000e+000
    endloop
  endfacet
  facet normal  0.000000e+000  0.000000e+000  1.000000e+000
    outer loop
      vertex  5.842202e-001  9.713758e-001  1.500000e+000
      vertex  2.182925e+000  2.595867e-001  1.500000e+000
      vertex  2.000000e+000  1.000000e+000  1.500000e+000
    endloop
  endfacet
  facet normal  0.000000e+000  0.000000e+000  9.999999e-001
    outer loop
      vertex  5.842202e-001  9.713758e-001  1.500000e+000
      vertex  2.000000e+000  1.000000e+000  1.500000e+000
      vertex  1.741181e+000  1.034074e+000  1.500000e+000
    endloop
  endfacet
  facet normal  0.000000e+000  0.000000e+000  1.000000e+000
    outer loop
      vertex  5.842202e-001  9.713758e-001  1.500000e+000
      vertex  1.741181e+000  1.034074e+000  1.500000e+000
      vertex  1.500000e+000  1.133975e+000  1.500000e+000
    endloop
  endfacet
  facet normal  0.000000e+000  0.000000e+000  1.000000e+000
    outer loop
      vertex  5.842202e-001  9.713758e-001  1.500000e+000
      vertex  1.500000e+000  1.133975e+000  1.500000e+000
      vertex  1.292893e+000  1.292893e+000  1.500000e+000
    endloop
  endfacet
  facet normal  0.000000e+000  0.000000e+000  1.000000e+000
    outer loop
      vertex  5.842202e-001  9.713758e-001  1.500000e+000
      vertex  1.292893e+000  1.292893e+000  1.500000e+000
      vertex  4.012955e-001  1.288211e+000  1.500000e+000
    endloop
  endfacet
  facet normal  0.000000e+000  -0.000000e+000  1.000000e+000
    outer loop
      vertex  2.000000e+000  1.000000e+000  1.500000e+000
      vertex  2.182925e+000  2.595867e-001  1.500000e+000
      vertex  2.540780e+000  3.356511e-001  1.500000e+000
    endloop
  endfacet
  facet normal  0.000000e+000  -0.000000e+000  1.000000e+000
    outer loop
      vertex  2.000000e+000  1.000000e+000  1.500000e+000
      vertex  2.540780e+000  3.356511e-001  1.500000e+000
      vertex  2.875000e+000  4.844556e-001  1.500000e+000
    endloop
  endfacet
  facet normal  0.000000e+000  -0.000000e+000  1.000000e+000
    outer loop
      vertex  2.000000e+000  1.000000e+000  1.500000e+000
      vertex  2.875000e+000  4.844556e-001  1.500000e+000
      vertex  3.170979e+000  6.994966e-001  1.500000e+000
    endloop
  endfacet
  facet normal  0.000000e+000  -0.000000e+000  1.000000e+000
    outer loop
      vertex  2.000000e+000  1.000000e+000  1.500000e+000
      vertex  3.170979e+000  6.994966e-001  1.500000e+000
      vertex  3.415780e+000  9.713758e-001  1.500000e+000
    endloop
  endfacet
  facet normal  0.000000e+000  0.000000e+000  9.999999e-001
    outer loop
      vertex  2.000000e+000  1.000000e+000  1.500000e+000
      vertex  3.415780e+000  9.713758e-001  1.500000e+000
      vertex  2.258819e+000  1.034074e+000  1.500000e+000
    endloop
  endfacet
  facet normal  0.000000e+000  -0.000000e+000  9.999999e-001
    outer loop
      vertex  2.000000e+000  3.000000e+000  1.500000e+000
      vertex  2.258819e+000  2.965926e+000  1.500000e+000
      vertex  3.415780e+000  3.028624e+000  1.500000e+000
    endloop
  endfacet
  facet normal  0.000000e+000  0.000000e+000  1.000000e+000
    outer loop
      vertex  2.000000e+000  3.000000e+000  1.500000e+000
      vertex  3.415780e+000  3.028624e+000  1.500000e+000
      vertex  3.170979e+000  3.300503e+000  1.500000e+000
    endloop
  endfacet
  facet normal  0.000000e+000  0.000000e+000  1.000000e+000
    outer loop
      vertex  2.000000e+000  3.000000e+000  1.500000e+000
      vertex  3.170979e+000  3.300503e+000  1.500000e+000
      vertex  2.875000e+000  3.515544e+000  1.500000e+000
    endloop
  endfacet
  facet normal  0.000000e+000  0.000000e+000  1.000000e+000
    outer loop
      vertex  2.000000e+000  3.000000e+000  1.500000e+000
      vertex  2.875000e+000  3.515544e+000  1.500000e+000
      vertex  2.540780e+000  3.664349e+000  1.500000e+000
    endloop
  endfacet
  facet normal  0.000000e+000  0.000000e+000  1.000000e+000
    outer loop
      vertex  2.000000e+000  3.000000e+000  1.500000e+000
      vertex  2.540780e+000  3.664349e+000  1.500000e+000
      vertex  2.182925e+000  3.740413e+000  1.500000e+000
    endloop
  endfacet
  facet normal  0.000000e+000  0.000000e+000  1.000000e+000
    outer loop
      vertex  2.000000e+000  3.000000e+000  1.500000e+000
      vertex  2.182925e+000  3.740413e+000  1.500000e+000
      vertex  1.817075e+000  3.740413e+000  1.500000e+000
    endloop
  endfacet
  facet normal  0.000000e+000  0.000000e+000  1.000000e+000
    outer loop
      vertex  2.000000e+000  3.000000e+000  1.500000e+000
      vertex  1.817075e+000  3.740413e+000  1.500000e+000
      vertex  1.459220e+000  3.664349e+000  1.500000e+000
    endloop
  endfacet
  facet normal  0.000000e+000  0.000000e+000  1.000000e+000
    outer loop
      vertex  2.000000e+000  3.000000e+000  1.500000e+000
      vertex  1.459220e+000  3.664349e+000  1.500000e+000
      vertex  1.125000e+000  3.515544e+000  1.500000e+000
    endloop
  endfacet
  facet normal  0.000000e+000  0.000000e+000  9.999999e-001
    outer loop
      vertex  2.000000e+000  3.000000e+000  1.500000e+000
      vertex  1.125000e+000  3.515544e+000  1.500000e+000
      vertex  8.290215e-001  3.300503e+000  1.500000e+000
    endloop
  endfacet
  facet normal  0.000000e+000  0.000000e+000  1.000000e+000
    outer loop
      vertex  2.000000e+000  3.000000e+000  1.500000e+000
      vertex  8.290215e-001  3.300503e+000  1.500000e+000
      vertex  5.842202e-001  3.028624e+000  1.500000e+000
    endloop
  endfacet
  facet normal  0.000000e+000  0.000000e+000  1.000000e+000
    outer loop
      vertex  2.000000e+000  3.000000e+000  1.500000e+000
      vertex  5.842202e-001  3.028624e+000  1.500000e+000
      vertex  1.741181e+000  2.965926e+000  1.500000e+000
    endloop
  endfacet
  facet normal  0.000000e+000  0.000000e+000  1.000000e+000
    outer loop
      vertex  1.741181e+000  2.965926e+000  1.500000e+000
      vertex  5.842202e-001  3.028624e+000  1.500000e+000
      vertex  1.500000e+000  2.866025e+000  1.500000e+000
    endloop
  endfacet
  facet normal  0.000000e+000  0.000000e+000  1.000000e+000
    outer loop
      vertex  1.500000e+000  2.866025e+000  1.500000e+000
      vertex  5.842202e-001  3.028624e+000  1.500000e+000
      vertex  4.012955e-001  2.711789e+000  1.500000e+000
    endloop
  endfacet
  facet normal  -0.000000e+000  0.000000e+000  1.000000e+000
    outer loop
      vertex  1.500000e+000  2.866025e+000  1.500000e+000
      vertex  4.012955e-001  2.711789e+000  1.500000e+000
      vertex  1.292893e+000  2.707107e+000  1.500000e+000
    endloop
  endfacet
  facet normal  0.000000e+000  0.000000e+000  9.999999e-001
    outer loop
      vertex  1.292893e+000  2.707107e+000  1.500000e+000
      vertex  4.012955e-001  2.711789e+000  1.500000e+000
      vertex  1.133975e+000  2.500000e+000  1.500000e+000
    endloop
  endfacet
  facet normal  0.000000e+000  0.000000e+000  9.999999e-001
    outer loop
      vertex  1.133975e+000  2.500000e+000  1.500000e+000
      vertex  4.012955e-001  2.711789e+000  1.500000e+000
      vertex  2.882417e-001  2.363845e+000  1.500000e+000
    endloop
  endfacet
  facet normal  -0.000000e+000  0.000000e+000  1.000000e+000
    outer loop
      vertex  1.133975e+000  2.500000e+000  1.500000e+000
      vertex  2.882417e-001  2.363845e+000  1.500000e+000
      vertex  1.034074e+000  2.258819e+000  1.500000e+000
    endloop
  endfacet
  facet normal  0.000000e+000  0.000000e+000  1.000000e+000
    outer loop
      vertex  1.034074e+000  2.258819e+000  1.500000e+000
      vertex  2.882417e-001  2.363845e+000  1.500000e+000
      vertex  1.000000e+000  2.000000e+000  1.500000e+000
    endloop
  endfacet
  facet normal  0.000000e+000  0.000000e+000  1.000000e+000
    outer loop
      vertex  1.000000e+000  2.000000e+000  1.500000e+000
      vertex  2.882417e-001  2.363845e+000  1.500000e+000
      vertex  2.500000e-001  2.000000e+000  1.500000e+000
    endloop
  endfacet
  facet normal  -0.000000e+000  0.000000e+000  1.000000e+000
    outer loop
      vertex  1.000000e+000  2.000000e+000  1.500000e+000
      vertex  2.500000e-001  2.000000e+000  1.500000e+000
      vertex  1.034074e+000  1.741181e+000  1.500000e+000
    endloop
  endfacet
  facet normal  0.000000e+000  0.000000e+000  1.000000e+000
    outer loop
      vertex  1.034074e+000  1.741181e+000  1.500000e+000
      vertex  2.500000e-001  2.000000e+000  1.500000e+000
      vertex  2.882417e-001  1.636155e+000  1.500000e+000
    endloop
  endfacet
  facet normal  -0.000000e+000  0.000000e+000  1.000000e+000
    outer loop
      vertex  1.034074e+000  1.741181e+000  1.500000e+000
      vertex  2.882417e-001  1.636155e+000  1.500000e+000
      vertex  1.133975e+000  1.500000e+000  1.500000e+000
    endloop
  endfacet
  facet normal  0.000000e+000  0.000000e+000  1.000000e+000
    outer loop
      vertex  1.133975e+000  1.500000e+000  1.500000e+000
      vertex  2.882417e-001  1.636155e+000  1.500000e+000
      vertex  4.012955e-001  1.288211e+000  1.500000e+000
    endloop
  endfacet
  facet normal  0.000000e+000  0.000000e+000  9.999999e-001
    outer loop
      vertex  1.133975e+000  1.500000e+000  1.500000e+000
      vertex  4.012955e-001  1.288211e+000  1.500000e+000
      vertex  1.292893e+000  1.292893e+000  1.500000e+000
    endloop
  endfacet
  facet normal  -0.000000e+000  0.000000e+000  9.999999e-001
    outer loop
      vertex  3.415780e+000  3.028624e+000  1.500000e+000
      vertex  2.258819e+000  2.965926e+000  1.500000e+000
      vertex  3.598705e+000  2.711789e+000  1.500000e+000
    endloop
  endfacet
  facet normal  0.000000e+000  0.000000e+000  1.000000e+000
    outer loop
      vertex  3.598705e+000  2.711789e+000  1.500000e+000
      vertex  2.258819e+000  2.965926e+000  1.500000e+000
      vertex  2.500000e+000  2.866025e+000  1.500000e+000
    endloop
  endfacet
  facet normal  0.000000e+000  0.000000e+000  1.000000e+000
    outer loop
      vertex  3.598705e+000  2.711789e+000  1.500000e+000
      vertex  2.500000e+000  2.866025e+000  1.500000e+000
      vertex  2.707107e+000  2.707107e+000  1.500000e+000
    endloop
  endfacet
  facet normal  -0.000000e+000  0.000000e+000  1.000000e+000
    outer loop
      vertex  3.598705e+000  2.711789e+000  1.500000e+000
      vertex  2.707107e+000  2.707107e+000  1.500000e+000
      vertex  3.711758e+000  2.363845e+000  1.500000e+000
    endloop
  endfacet
  facet normal  0.000000e+000  0.000000e+000  1.000000e+000
    outer loop
      vertex  3.711758e+000  2.363845e+000  1.500000e+000
      vertex  2.707107e+000  2.707107e+000  1.500000e+000
      vertex  2.866025e+000  2.500000e+000  1.500000e+000
    endloop
  endfacet
  facet normal  0.000000e+000  0.000000e+000  1.000000e+000
    outer loop
      vertex  3.711758e+000  2.363845e+000  1.500000e+000
      vertex  2.866025e+000  2.500000e+000  1.500000e+000
      vertex  2.965926e+000  2.258819e+000  1.500000e+000
    endloop
  endfacet
  facet normal  -0.000000e+000  0.000000e+000  1.000000e+000
    outer loop
      vertex  3.711758e+000  2.363845e+000  1.500000e+000
      vertex  2.965926e+000  2.258819e+000  1.500000e+000
      vertex  3.750000e+000  2.000000e+000  1.500000e+000
    endloop
  endfacet
  facet normal  0.000000e+000  0.000000e+000  1.000000e+000
    outer loop
      vertex  3.750000e+000  2.000000e+000  1.500000e+000
      vertex  2.965926e+000  2.258819e+000  1.500000e+000
      vertex  3.000000e+000  2.000000e+000  1.500000e+000
    endloop
  endfacet
  facet normal  -0.000000e+000  0.000000e+000  1.000000e+000
    outer loop
      vertex  3.750000e+000  2.000000e+000  1.500000e+000
      vertex  3.000000e+000  2.000000e+000  1.500000e+000
      vertex  3.711758e+000  1.636155e+000  1.500000e+000
    endloop
  endfacet
  facet normal  0.000000e+000  0.000000e+000  1.000000e+000
    outer loop
      vertex  3.711758e+000  1.636155e+000  1.500000e+000
      vertex  3.000000e+000  2.000000e+000  1.500000e+000
      vertex  2.965926e+000  1.741181e+000  1.500000e+000
    endloop
  endfacet
  facet normal  0.000000e+000  0.000000e+000  1.000000e+000
    outer loop
      vertex  3.711758e+000  1.636155e+000  1.500000e+000
      vertex  2.965926e+000  1.741181e+000  1.500000e+000
      vertex  3.598705e+000  1.288211e+000  1.500000e+000
    endloop
  endfacet
  facet normal  0.000000e+000  0.000000e+000  1.000000e+000
    outer loop
      vertex  3.598705e+000  1.288211e+000  1.500000e+000
      vertex  2.965926e+000  1.741181e+000  1.500000e+000
      vertex  2.866025e+000  1.500000e+000  1.500000e+000
    endloop
  endfacet
  facet normal  0.000000e+000  0.000000e+000  9.999999e-001
    outer loop
      vertex  3.598705e+000  1.288211e+000  1.500000e+000
      vertex  2.866025e+000  1.500000e+000  1.500000e+000
      vertex  2.707107e+000  1.292893e+000  1.500000e+000
    endloop
  endfacet
  facet normal  0.000000e+000  0.000000e+000  1.000000e+000
    outer loop
      vertex  3.598705e+000  1.288211e+000  1.500000e+000
      vertex  2.707107e+000  1.292893e+000  1.500000e+000
      vertex  3.415780e+000  9.713758e-001  1.500000e+000
    endloop
  endfacet
  facet normal  0.000000e+000  0.000000e+000  1.000000e+000
    outer loop
      vertex  3.415780e+000  9.713758e-001  1.500000e+000
      vertex  2.707107e+000  1.292893e+000  1.500000e+000
      vertex  2.500000e+000  1.133975e+000  1.500000e+000
    endloop
  endfacet
  facet normal  0.000000e+000  0.000000e+000  1.000000e+000
    outer loop
      vertex  3.415780e+000  9.713758e-001  1.500000e+000
      vertex  2.500000e+000  1.133975e+000  1.500000e+000
      vertex  2.258819e+000  1.034074e+000  1.500000e+000
    endloop
  endfacet
endsolid CATIA STL
