solid CATIA STL
  facet normal  -0.000000e+000  0.000000e+000  1.000000e+000
    outer loop
      vertex  1.491682e-001  1.228511e+000  7.000000e+000
      vertex -1.491682e-001  1.228511e+000  7.000000e+000
      vertex  4.388356e-001  1.157114e+000  7.000000e+000
    endloop
  endfacet
  facet normal  0.000000e+000  0.000000e+000  1.000000e+000
    outer loop
      vertex  4.388356e-001  1.157114e+000  7.000000e+000
      vertex -1.491682e-001  1.228511e+000  7.000000e+000
      vertex -4.388356e-001  1.157114e+000  7.000000e+000
    endloop
  endfacet
  facet normal  -0.000000e+000  0.000000e+000  1.000000e+000
    outer loop
      vertex  4.388356e-001  1.157114e+000  7.000000e+000
      vertex -4.388356e-001  1.157114e+000  7.000000e+000
      vertex  7.029995e-001  1.018471e+000  7.000000e+000
    endloop
  endfacet
  facet normal  0.000000e+000  0.000000e+000  1.000000e+000
    outer loop
      vertex  7.029995e-001  1.018471e+000  7.000000e+000
      vertex -4.388356e-001  1.157114e+000  7.000000e+000
      vertex -7.029995e-001  1.018471e+000  7.000000e+000
    endloop
  endfacet
  facet normal  -0.000000e+000  0.000000e+000  1.000000e+000
    outer loop
      vertex  7.029995e-001  1.018471e+000  7.000000e+000
      vertex -7.029995e-001  1.018471e+000  7.000000e+000
      vertex  9.263075e-001  8.206369e-001  7.000000e+000
    endloop
  endfacet
  facet normal  0.000000e+000  0.000000e+000  9.999999e-001
    outer loop
      vertex  9.263075e-001  8.206369e-001  7.000000e+000
      vertex -7.029995e-001  1.018471e+000  7.000000e+000
      vertex -9.263075e-001  8.206369e-001  7.000000e+000
    endloop
  endfacet
  facet normal  -0.000000e+000  0.000000e+000  9.999999e-001
    outer loop
      vertex  9.263075e-001  8.206369e-001  7.000000e+000
      vertex -9.263075e-001  8.206369e-001  7.000000e+000
      vertex  1.095782e+000  5.751107e-001  7.000000e+000
    endloop
  endfacet
  facet normal  0.000000e+000  0.000000e+000  1.000000e+000
    outer loop
      vertex  1.095782e+000  5.751107e-001  7.000000e+000
      vertex -9.263075e-001  8.206369e-001  7.000000e+000
      vertex -1.095782e+000  5.751107e-001  7.000000e+000
    endloop
  endfacet
  facet normal  -0.000000e+000  0.000000e+000  1.000000e+000
    outer loop
      vertex  1.095782e+000  5.751107e-001  7.000000e+000
      vertex -1.095782e+000  5.751107e-001  7.000000e+000
      vertex  1.201573e+000  2.961613e-001  7.000000e+000
    endloop
  endfacet
  facet normal  0.000000e+000  0.000000e+000  1.000000e+000
    outer loop
      vertex  1.201573e+000  2.961613e-001  7.000000e+000
      vertex -1.095782e+000  5.751107e-001  7.000000e+000
      vertex -1.201573e+000  2.961613e-001  7.000000e+000
    endloop
  endfacet
  facet normal  -0.000000e+000  0.000000e+000  1.000000e+000
    outer loop
      vertex  1.201573e+000  2.961613e-001  7.000000e+000
      vertex -1.201573e+000  2.961613e-001  7.000000e+000
      vertex  1.237534e+000 -3.031084e-016  7.000000e+000
    endloop
  endfacet
  facet normal  0.000000e+000  0.000000e+000  1.000000e+000
    outer loop
      vertex  1.237534e+000 -3.031084e-016  7.000000e+000
      vertex -1.201573e+000  2.961613e-001  7.000000e+000
      vertex -1.237534e+000  1.515542e-016  7.000000e+000
    endloop
  endfacet
  facet normal  0.000000e+000  0.000000e+000  1.000000e+000
    outer loop
      vertex  1.237534e+000 -3.031084e-016  7.000000e+000
      vertex -1.237534e+000  1.515542e-016  7.000000e+000
      vertex  1.201573e+000 -2.961613e-001  7.000000e+000
    endloop
  endfacet
  facet normal  0.000000e+000  0.000000e+000  1.000000e+000
    outer loop
      vertex  1.201573e+000 -2.961613e-001  7.000000e+000
      vertex -1.237534e+000  1.515542e-016  7.000000e+000
      vertex -1.201573e+000 -2.961613e-001  7.000000e+000
    endloop
  endfacet
  facet normal  -0.000000e+000  0.000000e+000  1.000000e+000
    outer loop
      vertex  1.201573e+000 -2.961613e-001  7.000000e+000
      vertex -1.201573e+000 -2.961613e-001  7.000000e+000
      vertex  1.095782e+000 -5.751107e-001  7.000000e+000
    endloop
  endfacet
  facet normal  0.000000e+000  0.000000e+000  1.000000e+000
    outer loop
      vertex  1.095782e+000 -5.751107e-001  7.000000e+000
      vertex -1.201573e+000 -2.961613e-001  7.000000e+000
      vertex -1.095782e+000 -5.751107e-001  7.000000e+000
    endloop
  endfacet
  facet normal  -0.000000e+000  0.000000e+000  1.000000e+000
    outer loop
      vertex  1.095782e+000 -5.751107e-001  7.000000e+000
      vertex -1.095782e+000 -5.751107e-001  7.000000e+000
      vertex  9.263075e-001 -8.206369e-001  7.000000e+000
    endloop
  endfacet
  facet normal  0.000000e+000  0.000000e+000  9.999999e-001
    outer loop
      vertex  9.263075e-001 -8.206369e-001  7.000000e+000
      vertex -1.095782e+000 -5.751107e-001  7.000000e+000
      vertex -9.263075e-001 -8.206369e-001  7.000000e+000
    endloop
  endfacet
  facet normal  -0.000000e+000  0.000000e+000  9.999999e-001
    outer loop
      vertex  9.263075e-001 -8.206369e-001  7.000000e+000
      vertex -9.263075e-001 -8.206369e-001  7.000000e+000
      vertex  7.029995e-001 -1.018471e+000  7.000000e+000
    endloop
  endfacet
  facet normal  0.000000e+000  0.000000e+000  1.000000e+000
    outer loop
      vertex  7.029995e-001 -1.018471e+000  7.000000e+000
      vertex -9.263075e-001 -8.206369e-001  7.000000e+000
      vertex -7.029995e-001 -1.018471e+000  7.000000e+000
    endloop
  endfacet
  facet normal  -0.000000e+000  0.000000e+000  1.000000e+000
    outer loop
      vertex  7.029995e-001 -1.018471e+000  7.000000e+000
      vertex -7.029995e-001 -1.018471e+000  7.000000e+000
      vertex  4.388356e-001 -1.157114e+000  7.000000e+000
    endloop
  endfacet
  facet normal  0.000000e+000  0.000000e+000  1.000000e+000
    outer loop
      vertex  4.388356e-001 -1.157114e+000  7.000000e+000
      vertex -7.029995e-001 -1.018471e+000  7.000000e+000
      vertex -4.388356e-001 -1.157114e+000  7.000000e+000
    endloop
  endfacet
  facet normal  -0.000000e+000  0.000000e+000  1.000000e+000
    outer loop
      vertex  4.388356e-001 -1.157114e+000  7.000000e+000
      vertex -4.388356e-001 -1.157114e+000  7.000000e+000
      vertex  1.491682e-001 -1.228511e+000  7.000000e+000
    endloop
  endfacet
  facet normal  0.000000e+000  0.000000e+000  1.000000e+000
    outer loop
      vertex  1.491682e-001 -1.228511e+000  7.000000e+000
      vertex -4.388356e-001 -1.157114e+000  7.000000e+000
      vertex -1.491682e-001 -1.228511e+000  7.000000e+000
    endloop
  endfacet
  facet normal  -0.000000e+000  -0.000000e+000  1.000000e+000
    outer loop
      vertex  9.184851e-017  1.500000e+000  4.000000e+000
      vertex  3.337814e-001  1.462392e+000  4.000000e+000
      vertex  1.414214e+000  1.414214e+000  4.000000e+000
    endloop
  endfacet
  facet normal  0.000000e+000  0.000000e+000  1.000000e+000
    outer loop
      vertex  9.184851e-017  1.500000e+000  4.000000e+000
      vertex  1.414214e+000  1.414214e+000  4.000000e+000
      vertex  1.111140e+000  1.662939e+000  4.000000e+000
    endloop
  endfacet
  facet normal  0.000000e+000  0.000000e+000  1.000000e+000
    outer loop
      vertex  9.184851e-017  1.500000e+000  4.000000e+000
      vertex  1.111140e+000  1.662939e+000  4.000000e+000
      vertex  7.653669e-001  1.847759e+000  4.000000e+000
    endloop
  endfacet
  facet normal  0.000000e+000  0.000000e+000  1.000000e+000
    outer loop
      vertex  9.184851e-017  1.500000e+000  4.000000e+000
      vertex  7.653669e-001  1.847759e+000  4.000000e+000
      vertex  3.901806e-001  1.961571e+000  4.000000e+000
    endloop
  endfacet
  facet normal  0.000000e+000  0.000000e+000  9.999999e-001
    outer loop
      vertex  9.184851e-017  1.500000e+000  4.000000e+000
      vertex  3.901806e-001  1.961571e+000  4.000000e+000
      vertex  1.224647e-016  2.000000e+000  4.000000e+000
    endloop
  endfacet
  facet normal  0.000000e+000  0.000000e+000  9.999999e-001
    outer loop
      vertex  9.184851e-017  1.500000e+000  4.000000e+000
      vertex  1.224647e-016  2.000000e+000  4.000000e+000
      vertex -3.901806e-001  1.961571e+000  4.000000e+000
    endloop
  endfacet
  facet normal  0.000000e+000  0.000000e+000  1.000000e+000
    outer loop
      vertex  9.184851e-017  1.500000e+000  4.000000e+000
      vertex -3.901806e-001  1.961571e+000  4.000000e+000
      vertex -7.653669e-001  1.847759e+000  4.000000e+000
    endloop
  endfacet
  facet normal  0.000000e+000  0.000000e+000  1.000000e+000
    outer loop
      vertex  9.184851e-017  1.500000e+000  4.000000e+000
      vertex -7.653669e-001  1.847759e+000  4.000000e+000
      vertex -1.111140e+000  1.662939e+000  4.000000e+000
    endloop
  endfacet
  facet normal  0.000000e+000  0.000000e+000  1.000000e+000
    outer loop
      vertex  9.184851e-017  1.500000e+000  4.000000e+000
      vertex -1.111140e+000  1.662939e+000  4.000000e+000
      vertex -1.414214e+000  1.414214e+000  4.000000e+000
    endloop
  endfacet
  facet normal  0.000000e+000  0.000000e+000  1.000000e+000
    outer loop
      vertex  9.184851e-017  1.500000e+000  4.000000e+000
      vertex -1.414214e+000  1.414214e+000  4.000000e+000
      vertex -3.337814e-001  1.462392e+000  4.000000e+000
    endloop
  endfacet
  facet normal  -0.000000e+000  0.000000e+000  9.999999e-001
    outer loop
      vertex -3.337814e-001  1.462392e+000  4.000000e+000
      vertex -1.414214e+000  1.414214e+000  4.000000e+000
      vertex -6.508256e-001  1.351453e+000  4.000000e+000
    endloop
  endfacet
  facet normal  0.000000e+000  0.000000e+000  9.999999e-001
    outer loop
      vertex -6.508256e-001  1.351453e+000  4.000000e+000
      vertex -1.414214e+000  1.414214e+000  4.000000e+000
      vertex -1.662939e+000  1.111140e+000  4.000000e+000
    endloop
  endfacet
  facet normal  0.000000e+000  0.000000e+000  1.000000e+000
    outer loop
      vertex -6.508256e-001  1.351453e+000  4.000000e+000
      vertex -1.662939e+000  1.111140e+000  4.000000e+000
      vertex -9.352347e-001  1.172747e+000  4.000000e+000
    endloop
  endfacet
  facet normal  -0.000000e+000  0.000000e+000  1.000000e+000
    outer loop
      vertex -9.352347e-001  1.172747e+000  4.000000e+000
      vertex -1.662939e+000  1.111140e+000  4.000000e+000
      vertex -1.172747e+000  9.352347e-001  4.000000e+000
    endloop
  endfacet
  facet normal  0.000000e+000  0.000000e+000  1.000000e+000
    outer loop
      vertex -1.172747e+000  9.352347e-001  4.000000e+000
      vertex -1.662939e+000  1.111140e+000  4.000000e+000
      vertex -1.847759e+000  7.653669e-001  4.000000e+000
    endloop
  endfacet
  facet normal  -0.000000e+000  0.000000e+000  1.000000e+000
    outer loop
      vertex -1.172747e+000  9.352347e-001  4.000000e+000
      vertex -1.847759e+000  7.653669e-001  4.000000e+000
      vertex -1.351453e+000  6.508256e-001  4.000000e+000
    endloop
  endfacet
  facet normal  0.000000e+000  0.000000e+000  1.000000e+000
    outer loop
      vertex -1.351453e+000  6.508256e-001  4.000000e+000
      vertex -1.847759e+000  7.653669e-001  4.000000e+000
      vertex -1.462392e+000  3.337814e-001  4.000000e+000
    endloop
  endfacet
  facet normal  0.000000e+000  0.000000e+000  1.000000e+000
    outer loop
      vertex -1.462392e+000  3.337814e-001  4.000000e+000
      vertex -1.847759e+000  7.653669e-001  4.000000e+000
      vertex -1.961571e+000  3.901806e-001  4.000000e+000
    endloop
  endfacet
  facet normal  0.000000e+000  0.000000e+000  1.000000e+000
    outer loop
      vertex -1.462392e+000  3.337814e-001  4.000000e+000
      vertex -1.961571e+000  3.901806e-001  4.000000e+000
      vertex -1.500000e+000  1.836970e-016  4.000000e+000
    endloop
  endfacet
  facet normal  0.000000e+000  0.000000e+000  9.999999e-001
    outer loop
      vertex -1.500000e+000  1.836970e-016  4.000000e+000
      vertex -1.961571e+000  3.901806e-001  4.000000e+000
      vertex -2.000000e+000  2.449294e-016  4.000000e+000
    endloop
  endfacet
  facet normal  0.000000e+000  0.000000e+000  1.000000e+000
    outer loop
      vertex -1.500000e+000  1.836970e-016  4.000000e+000
      vertex -2.000000e+000  2.449294e-016  4.000000e+000
      vertex -1.462392e+000 -3.337814e-001  4.000000e+000
    endloop
  endfacet
  facet normal  0.000000e+000  0.000000e+000  1.000000e+000
    outer loop
      vertex -1.462392e+000 -3.337814e-001  4.000000e+000
      vertex -2.000000e+000  2.449294e-016  4.000000e+000
      vertex -1.961571e+000 -3.901806e-001  4.000000e+000
    endloop
  endfacet
  facet normal  -0.000000e+000  0.000000e+000  1.000000e+000
    outer loop
      vertex -1.462392e+000 -3.337814e-001  4.000000e+000
      vertex -1.961571e+000 -3.901806e-001  4.000000e+000
      vertex -1.351453e+000 -6.508256e-001  4.000000e+000
    endloop
  endfacet
  facet normal  0.000000e+000  0.000000e+000  1.000000e+000
    outer loop
      vertex -1.351453e+000 -6.508256e-001  4.000000e+000
      vertex -1.961571e+000 -3.901806e-001  4.000000e+000
      vertex -1.847759e+000 -7.653669e-001  4.000000e+000
    endloop
  endfacet
  facet normal  -0.000000e+000  0.000000e+000  1.000000e+000
    outer loop
      vertex -1.351453e+000 -6.508256e-001  4.000000e+000
      vertex -1.847759e+000 -7.653669e-001  4.000000e+000
      vertex -1.172747e+000 -9.352347e-001  4.000000e+000
    endloop
  endfacet
  facet normal  0.000000e+000  0.000000e+000  1.000000e+000
    outer loop
      vertex -1.172747e+000 -9.352347e-001  4.000000e+000
      vertex -1.847759e+000 -7.653669e-001  4.000000e+000
      vertex -1.662939e+000 -1.111140e+000  4.000000e+000
    endloop
  endfacet
  facet normal  -0.000000e+000  0.000000e+000  1.000000e+000
    outer loop
      vertex -1.172747e+000 -9.352347e-001  4.000000e+000
      vertex -1.662939e+000 -1.111140e+000  4.000000e+000
      vertex -9.352347e-001 -1.172747e+000  4.000000e+000
    endloop
  endfacet
  facet normal  0.000000e+000  0.000000e+000  1.000000e+000
    outer loop
      vertex -9.352347e-001 -1.172747e+000  4.000000e+000
      vertex -1.662939e+000 -1.111140e+000  4.000000e+000
      vertex -6.508256e-001 -1.351453e+000  4.000000e+000
    endloop
  endfacet
  facet normal  0.000000e+000  0.000000e+000  9.999999e-001
    outer loop
      vertex -6.508256e-001 -1.351453e+000  4.000000e+000
      vertex -1.662939e+000 -1.111140e+000  4.000000e+000
      vertex -1.414214e+000 -1.414214e+000  4.000000e+000
    endloop
  endfacet
  facet normal  -0.000000e+000  0.000000e+000  9.999999e-001
    outer loop
      vertex -6.508256e-001 -1.351453e+000  4.000000e+000
      vertex -1.414214e+000 -1.414214e+000  4.000000e+000
      vertex -3.337814e-001 -1.462392e+000  4.000000e+000
    endloop
  endfacet
  facet normal  0.000000e+000  0.000000e+000  1.000000e+000
    outer loop
      vertex -3.337814e-001 -1.462392e+000  4.000000e+000
      vertex -1.414214e+000 -1.414214e+000  4.000000e+000
      vertex -2.755455e-016 -1.500000e+000  4.000000e+000
    endloop
  endfacet
  facet normal  0.000000e+000  0.000000e+000  1.000000e+000
    outer loop
      vertex -2.755455e-016 -1.500000e+000  4.000000e+000
      vertex -1.414214e+000 -1.414214e+000  4.000000e+000
      vertex -1.111140e+000 -1.662939e+000  4.000000e+000
    endloop
  endfacet
  facet normal  -0.000000e+000  0.000000e+000  1.000000e+000
    outer loop
      vertex -2.755455e-016 -1.500000e+000  4.000000e+000
      vertex -1.111140e+000 -1.662939e+000  4.000000e+000
      vertex -3.673940e-016 -2.000000e+000  4.000000e+000
    endloop
  endfacet
  facet normal  0.000000e+000  0.000000e+000  1.000000e+000
    outer loop
      vertex -3.673940e-016 -2.000000e+000  4.000000e+000
      vertex -1.111140e+000 -1.662939e+000  4.000000e+000
      vertex -7.653669e-001 -1.847759e+000  4.000000e+000
    endloop
  endfacet
  facet normal  0.000000e+000  0.000000e+000  9.999999e-001
    outer loop
      vertex -3.673940e-016 -2.000000e+000  4.000000e+000
      vertex -7.653669e-001 -1.847759e+000  4.000000e+000
      vertex -3.901806e-001 -1.961571e+000  4.000000e+000
    endloop
  endfacet
  facet normal  0.000000e+000  0.000000e+000  1.000000e+000
    outer loop
      vertex  1.414214e+000  1.414214e+000  4.000000e+000
      vertex  3.337814e-001  1.462392e+000  4.000000e+000
      vertex  1.662939e+000  1.111140e+000  4.000000e+000
    endloop
  endfacet
  facet normal  0.000000e+000  0.000000e+000  1.000000e+000
    outer loop
      vertex  1.662939e+000  1.111140e+000  4.000000e+000
      vertex  3.337814e-001  1.462392e+000  4.000000e+000
      vertex  6.508256e-001  1.351453e+000  4.000000e+000
    endloop
  endfacet
  facet normal  0.000000e+000  0.000000e+000  1.000000e+000
    outer loop
      vertex  1.662939e+000  1.111140e+000  4.000000e+000
      vertex  6.508256e-001  1.351453e+000  4.000000e+000
      vertex  9.352347e-001  1.172747e+000  4.000000e+000
    endloop
  endfacet
  facet normal  0.000000e+000  0.000000e+000  1.000000e+000
    outer loop
      vertex  1.662939e+000  1.111140e+000  4.000000e+000
      vertex  9.352347e-001  1.172747e+000  4.000000e+000
      vertex  1.847759e+000  7.653669e-001  4.000000e+000
    endloop
  endfacet
  facet normal  0.000000e+000  0.000000e+000  1.000000e+000
    outer loop
      vertex  1.847759e+000  7.653669e-001  4.000000e+000
      vertex  9.352347e-001  1.172747e+000  4.000000e+000
      vertex  1.172747e+000  9.352347e-001  4.000000e+000
    endloop
  endfacet
  facet normal  0.000000e+000  0.000000e+000  1.000000e+000
    outer loop
      vertex  1.847759e+000  7.653669e-001  4.000000e+000
      vertex  1.172747e+000  9.352347e-001  4.000000e+000
      vertex  1.351453e+000  6.508256e-001  4.000000e+000
    endloop
  endfacet
  facet normal  -0.000000e+000  0.000000e+000  1.000000e+000
    outer loop
      vertex  1.847759e+000  7.653669e-001  4.000000e+000
      vertex  1.351453e+000  6.508256e-001  4.000000e+000
      vertex  1.961571e+000  3.901806e-001  4.000000e+000
    endloop
  endfacet
  facet normal  0.000000e+000  0.000000e+000  1.000000e+000
    outer loop
      vertex  1.961571e+000  3.901806e-001  4.000000e+000
      vertex  1.351453e+000  6.508256e-001  4.000000e+000
      vertex  1.462392e+000  3.337814e-001  4.000000e+000
    endloop
  endfacet
  facet normal  -0.000000e+000  0.000000e+000  1.000000e+000
    outer loop
      vertex  1.961571e+000  3.901806e-001  4.000000e+000
      vertex  1.462392e+000  3.337814e-001  4.000000e+000
      vertex  2.000000e+000  0.000000e+000  4.000000e+000
    endloop
  endfacet
  facet normal  0.000000e+000  0.000000e+000  1.000000e+000
    outer loop
      vertex  2.000000e+000  0.000000e+000  4.000000e+000
      vertex  1.462392e+000  3.337814e-001  4.000000e+000
      vertex  1.500000e+000  0.000000e+000  4.000000e+000
    endloop
  endfacet
  facet normal  -0.000000e+000  0.000000e+000  9.999999e-001
    outer loop
      vertex  2.000000e+000  0.000000e+000  4.000000e+000
      vertex  1.500000e+000  0.000000e+000  4.000000e+000
      vertex  1.961571e+000 -3.901806e-001  4.000000e+000
    endloop
  endfacet
  facet normal  0.000000e+000  0.000000e+000  1.000000e+000
    outer loop
      vertex  1.961571e+000 -3.901806e-001  4.000000e+000
      vertex  1.500000e+000  0.000000e+000  4.000000e+000
      vertex  1.462392e+000 -3.337814e-001  4.000000e+000
    endloop
  endfacet
  facet normal  0.000000e+000  0.000000e+000  1.000000e+000
    outer loop
      vertex  1.961571e+000 -3.901806e-001  4.000000e+000
      vertex  1.462392e+000 -3.337814e-001  4.000000e+000
      vertex  1.847759e+000 -7.653669e-001  4.000000e+000
    endloop
  endfacet
  facet normal  0.000000e+000  0.000000e+000  1.000000e+000
    outer loop
      vertex  1.847759e+000 -7.653669e-001  4.000000e+000
      vertex  1.462392e+000 -3.337814e-001  4.000000e+000
      vertex  1.351453e+000 -6.508256e-001  4.000000e+000
    endloop
  endfacet
  facet normal  0.000000e+000  0.000000e+000  1.000000e+000
    outer loop
      vertex  1.847759e+000 -7.653669e-001  4.000000e+000
      vertex  1.351453e+000 -6.508256e-001  4.000000e+000
      vertex  1.662939e+000 -1.111140e+000  4.000000e+000
    endloop
  endfacet
  facet normal  0.000000e+000  0.000000e+000  1.000000e+000
    outer loop
      vertex  1.662939e+000 -1.111140e+000  4.000000e+000
      vertex  1.351453e+000 -6.508256e-001  4.000000e+000
      vertex  1.172747e+000 -9.352347e-001  4.000000e+000
    endloop
  endfacet
  facet normal  0.000000e+000  0.000000e+000  1.000000e+000
    outer loop
      vertex  1.662939e+000 -1.111140e+000  4.000000e+000
      vertex  1.172747e+000 -9.352347e-001  4.000000e+000
      vertex  9.352347e-001 -1.172747e+000  4.000000e+000
    endloop
  endfacet
  facet normal  -0.000000e+000  0.000000e+000  1.000000e+000
    outer loop
      vertex  1.662939e+000 -1.111140e+000  4.000000e+000
      vertex  9.352347e-001 -1.172747e+000  4.000000e+000
      vertex  1.414214e+000 -1.414214e+000  4.000000e+000
    endloop
  endfacet
  facet normal  0.000000e+000  0.000000e+000  1.000000e+000
    outer loop
      vertex  1.414214e+000 -1.414214e+000  4.000000e+000
      vertex  9.352347e-001 -1.172747e+000  4.000000e+000
      vertex  6.508256e-001 -1.351453e+000  4.000000e+000
    endloop
  endfacet
  facet normal  0.000000e+000  0.000000e+000  9.999999e-001
    outer loop
      vertex  1.414214e+000 -1.414214e+000  4.000000e+000
      vertex  6.508256e-001 -1.351453e+000  4.000000e+000
      vertex  3.337814e-001 -1.462392e+000  4.000000e+000
    endloop
  endfacet
  facet normal  -0.000000e+000  0.000000e+000  1.000000e+000
    outer loop
      vertex  1.414214e+000 -1.414214e+000  4.000000e+000
      vertex  3.337814e-001 -1.462392e+000  4.000000e+000
      vertex  1.111140e+000 -1.662939e+000  4.000000e+000
    endloop
  endfacet
  facet normal  0.000000e+000  0.000000e+000  1.000000e+000
    outer loop
      vertex  1.111140e+000 -1.662939e+000  4.000000e+000
      vertex  3.337814e-001 -1.462392e+000  4.000000e+000
      vertex -2.755455e-016 -1.500000e+000  4.000000e+000
    endloop
  endfacet
  facet normal  0.000000e+000  0.000000e+000  1.000000e+000
    outer loop
      vertex  1.111140e+000 -1.662939e+000  4.000000e+000
      vertex -2.755455e-016 -1.500000e+000  4.000000e+000
      vertex  7.653669e-001 -1.847759e+000  4.000000e+000
    endloop
  endfacet
  facet normal  0.000000e+000  0.000000e+000  1.000000e+000
    outer loop
      vertex  7.653669e-001 -1.847759e+000  4.000000e+000
      vertex -2.755455e-016 -1.500000e+000  4.000000e+000
      vertex -3.673940e-016 -2.000000e+000  4.000000e+000
    endloop
  endfacet
  facet normal  0.000000e+000  0.000000e+000  9.999999e-001
    outer loop
      vertex  7.653669e-001 -1.847759e+000  4.000000e+000
      vertex -3.673940e-016 -2.000000e+000  4.000000e+000
      vertex  3.901806e-001 -1.961571e+000  4.000000e+000
    endloop
  endfacet
  facet normal -9.899780e-001 -1.115438e-001  8.661184e-002
    outer loop
      vertex -1.500000e+000  1.836970e-016  4.000000e+000
      vertex -1.462392e+000 -3.337814e-001  4.000000e+000
      vertex -1.237534e+000  1.515542e-016  7.000000e+000
    endloop
  endfacet
  facet normal -9.889031e-001 -1.200748e-001  8.748044e-002
    outer loop
      vertex -1.462392e+000 -3.337814e-001  4.000000e+000
      vertex -1.201573e+000 -2.961613e-001  7.000000e+000
      vertex -1.237534e+000  1.515542e-016  7.000000e+000
    endloop
  endfacet
  facet normal  9.889030e-001 -1.200748e-001  8.748043e-002
    outer loop
      vertex  1.201573e+000 -2.961613e-001  7.000000e+000
      vertex  1.462392e+000 -3.337814e-001  4.000000e+000
      vertex  1.237534e+000 -3.031084e-016  7.000000e+000
    endloop
  endfacet
  facet normal  9.899780e-001 -1.115438e-001  8.661184e-002
    outer loop
      vertex  1.462392e+000 -3.337814e-001  4.000000e+000
      vertex  1.500000e+000  0.000000e+000  4.000000e+000
      vertex  1.237534e+000 -3.031084e-016  7.000000e+000
    endloop
  endfacet
  facet normal -9.403958e-001 -3.290586e-001  8.588391e-002
    outer loop
      vertex -1.462392e+000 -3.337814e-001  4.000000e+000
      vertex -1.351453e+000 -6.508256e-001  4.000000e+000
      vertex -1.201573e+000 -2.961613e-001  7.000000e+000
    endloop
  endfacet
  facet normal -8.436399e-001 -5.300940e-001  8.527686e-002
    outer loop
      vertex -1.351453e+000 -6.508256e-001  4.000000e+000
      vertex -1.172747e+000 -9.352347e-001  4.000000e+000
      vertex -1.095782e+000 -5.751107e-001  7.000000e+000
    endloop
  endfacet
  facet normal -9.313650e-001 -3.532201e-001  8.828913e-002
    outer loop
      vertex -1.201573e+000 -2.961613e-001  7.000000e+000
      vertex -1.351453e+000 -6.508256e-001  4.000000e+000
      vertex -1.095782e+000 -5.751107e-001  7.000000e+000
    endloop
  endfacet
  facet normal -7.045604e-001 -7.045604e-001  8.479094e-002
    outer loop
      vertex -1.172747e+000 -9.352347e-001  4.000000e+000
      vertex -9.352347e-001 -1.172747e+000  4.000000e+000
      vertex -9.263075e-001 -8.206369e-001  7.000000e+000
    endloop
  endfacet
  facet normal -8.197216e-001 -5.658129e-001  8.895097e-002
    outer loop
      vertex -1.095782e+000 -5.751107e-001  7.000000e+000
      vertex -1.172747e+000 -9.352347e-001  4.000000e+000
      vertex -9.263075e-001 -8.206369e-001  7.000000e+000
    endloop
  endfacet
  facet normal -5.301325e-001 -8.437012e-001  8.442631e-002
    outer loop
      vertex -9.352347e-001 -1.172747e+000  4.000000e+000
      vertex -6.508256e-001 -1.351453e+000  4.000000e+000
      vertex -7.029995e-001 -1.018471e+000  7.000000e+000
    endloop
  endfacet
  facet normal -6.604635e-001 -7.455091e-001  8.946587e-002
    outer loop
      vertex -9.263075e-001 -8.206369e-001  7.000000e+000
      vertex -9.352347e-001 -1.172747e+000  4.000000e+000
      vertex -7.029995e-001 -1.018471e+000  7.000000e+000
    endloop
  endfacet
  facet normal -3.291066e-001 -9.405328e-001  8.418315e-002
    outer loop
      vertex -6.508256e-001 -1.351453e+000  4.000000e+000
      vertex -3.337814e-001 -1.462392e+000  4.000000e+000
      vertex -4.388356e-001 -1.157114e+000  7.000000e+000
    endloop
  endfacet
  facet normal -4.628441e-001 -8.818759e-001  8.983371e-002
    outer loop
      vertex -7.029995e-001 -1.018471e+000  7.000000e+000
      vertex -6.508256e-001 -1.351453e+000  4.000000e+000
      vertex -4.388356e-001 -1.157114e+000  7.000000e+000
    endloop
  endfacet
  facet normal -1.115682e-001 -9.901950e-001  8.406154e-002
    outer loop
      vertex -3.337814e-001 -1.462392e+000  4.000000e+000
      vertex -2.755455e-016 -1.500000e+000  4.000000e+000
      vertex -1.491682e-001 -1.228511e+000  7.000000e+000
    endloop
  endfacet
  facet normal -2.383433e-001 -9.669967e-001  9.005445e-002
    outer loop
      vertex -4.388356e-001 -1.157114e+000  7.000000e+000
      vertex -3.337814e-001 -1.462392e+000  4.000000e+000
      vertex -1.491682e-001 -1.228511e+000  7.000000e+000
    endloop
  endfacet
  facet normal  1.115682e-001 -9.901950e-001  8.406154e-002
    outer loop
      vertex -2.755455e-016 -1.500000e+000  4.000000e+000
      vertex  3.337814e-001 -1.462392e+000  4.000000e+000
      vertex  1.491682e-001 -1.228511e+000  7.000000e+000
    endloop
  endfacet
  facet normal  0.000000e+000 -9.959302e-001  9.012803e-002
    outer loop
      vertex -1.491682e-001 -1.228511e+000  7.000000e+000
      vertex -2.755455e-016 -1.500000e+000  4.000000e+000
      vertex  1.491682e-001 -1.228511e+000  7.000000e+000
    endloop
  endfacet
  facet normal  3.291066e-001 -9.405328e-001  8.418315e-002
    outer loop
      vertex  3.337814e-001 -1.462392e+000  4.000000e+000
      vertex  6.508256e-001 -1.351453e+000  4.000000e+000
      vertex  4.388356e-001 -1.157114e+000  7.000000e+000
    endloop
  endfacet
  facet normal  2.383433e-001 -9.669967e-001  9.005445e-002
    outer loop
      vertex  1.491682e-001 -1.228511e+000  7.000000e+000
      vertex  3.337814e-001 -1.462392e+000  4.000000e+000
      vertex  4.388356e-001 -1.157114e+000  7.000000e+000
    endloop
  endfacet
  facet normal  5.301325e-001 -8.437012e-001  8.442631e-002
    outer loop
      vertex  6.508256e-001 -1.351453e+000  4.000000e+000
      vertex  9.352347e-001 -1.172747e+000  4.000000e+000
      vertex  7.029995e-001 -1.018471e+000  7.000000e+000
    endloop
  endfacet
  facet normal  4.628441e-001 -8.818759e-001  8.983371e-002
    outer loop
      vertex  4.388356e-001 -1.157114e+000  7.000000e+000
      vertex  6.508256e-001 -1.351453e+000  4.000000e+000
      vertex  7.029995e-001 -1.018471e+000  7.000000e+000
    endloop
  endfacet
  facet normal  7.045604e-001 -7.045604e-001  8.479093e-002
    outer loop
      vertex  9.352347e-001 -1.172747e+000  4.000000e+000
      vertex  1.172747e+000 -9.352347e-001  4.000000e+000
      vertex  9.263075e-001 -8.206369e-001  7.000000e+000
    endloop
  endfacet
  facet normal  6.604635e-001 -7.455091e-001  8.946587e-002
    outer loop
      vertex  7.029995e-001 -1.018471e+000  7.000000e+000
      vertex  9.352347e-001 -1.172747e+000  4.000000e+000
      vertex  9.263075e-001 -8.206369e-001  7.000000e+000
    endloop
  endfacet
  facet normal  8.436399e-001 -5.300940e-001  8.527686e-002
    outer loop
      vertex  1.172747e+000 -9.352347e-001  4.000000e+000
      vertex  1.351453e+000 -6.508256e-001  4.000000e+000
      vertex  1.095782e+000 -5.751107e-001  7.000000e+000
    endloop
  endfacet
  facet normal  8.197216e-001 -5.658129e-001  8.895097e-002
    outer loop
      vertex  9.263075e-001 -8.206369e-001  7.000000e+000
      vertex  1.172747e+000 -9.352347e-001  4.000000e+000
      vertex  1.095782e+000 -5.751107e-001  7.000000e+000
    endloop
  endfacet
  facet normal  9.403958e-001 -3.290586e-001  8.588391e-002
    outer loop
      vertex  1.351453e+000 -6.508256e-001  4.000000e+000
      vertex  1.462392e+000 -3.337814e-001  4.000000e+000
      vertex  1.201573e+000 -2.961613e-001  7.000000e+000
    endloop
  endfacet
  facet normal  9.313650e-001 -3.532201e-001  8.828913e-002
    outer loop
      vertex  1.095782e+000 -5.751107e-001  7.000000e+000
      vertex  1.351453e+000 -6.508256e-001  4.000000e+000
      vertex  1.201573e+000 -2.961613e-001  7.000000e+000
    endloop
  endfacet
  facet normal  9.899780e-001  1.115438e-001  8.661184e-002
    outer loop
      vertex  1.500000e+000  0.000000e+000  4.000000e+000
      vertex  1.462392e+000  3.337814e-001  4.000000e+000
      vertex  1.237534e+000 -3.031084e-016  7.000000e+000
    endloop
  endfacet
  facet normal  9.889031e-001  1.200748e-001  8.748044e-002
    outer loop
      vertex  1.462392e+000  3.337814e-001  4.000000e+000
      vertex  1.201573e+000  2.961613e-001  7.000000e+000
      vertex  1.237534e+000 -3.031084e-016  7.000000e+000
    endloop
  endfacet
  facet normal -9.889030e-001  1.200748e-001  8.748043e-002
    outer loop
      vertex -1.201573e+000  2.961613e-001  7.000000e+000
      vertex -1.462392e+000  3.337814e-001  4.000000e+000
      vertex -1.237534e+000  1.515542e-016  7.000000e+000
    endloop
  endfacet
  facet normal -9.899780e-001  1.115438e-001  8.661184e-002
    outer loop
      vertex -1.462392e+000  3.337814e-001  4.000000e+000
      vertex -1.500000e+000  1.836970e-016  4.000000e+000
      vertex -1.237534e+000  1.515542e-016  7.000000e+000
    endloop
  endfacet
  facet normal  9.403958e-001  3.290586e-001  8.588391e-002
    outer loop
      vertex  1.462392e+000  3.337814e-001  4.000000e+000
      vertex  1.351453e+000  6.508256e-001  4.000000e+000
      vertex  1.201573e+000  2.961613e-001  7.000000e+000
    endloop
  endfacet
  facet normal  8.436399e-001  5.300940e-001  8.527686e-002
    outer loop
      vertex  1.351453e+000  6.508256e-001  4.000000e+000
      vertex  1.172747e+000  9.352347e-001  4.000000e+000
      vertex  1.095782e+000  5.751107e-001  7.000000e+000
    endloop
  endfacet
  facet normal  9.313650e-001  3.532201e-001  8.828913e-002
    outer loop
      vertex  1.201573e+000  2.961613e-001  7.000000e+000
      vertex  1.351453e+000  6.508256e-001  4.000000e+000
      vertex  1.095782e+000  5.751107e-001  7.000000e+000
    endloop
  endfacet
  facet normal  7.045604e-001  7.045604e-001  8.479094e-002
    outer loop
      vertex  1.172747e+000  9.352347e-001  4.000000e+000
      vertex  9.352347e-001  1.172747e+000  4.000000e+000
      vertex  9.263075e-001  8.206369e-001  7.000000e+000
    endloop
  endfacet
  facet normal  8.197216e-001  5.658129e-001  8.895097e-002
    outer loop
      vertex  1.095782e+000  5.751107e-001  7.000000e+000
      vertex  1.172747e+000  9.352347e-001  4.000000e+000
      vertex  9.263075e-001  8.206369e-001  7.000000e+000
    endloop
  endfacet
  facet normal  5.301325e-001  8.437012e-001  8.442631e-002
    outer loop
      vertex  9.352347e-001  1.172747e+000  4.000000e+000
      vertex  6.508256e-001  1.351453e+000  4.000000e+000
      vertex  7.029995e-001  1.018471e+000  7.000000e+000
    endloop
  endfacet
  facet normal  6.604635e-001  7.455091e-001  8.946587e-002
    outer loop
      vertex  9.263075e-001  8.206369e-001  7.000000e+000
      vertex  9.352347e-001  1.172747e+000  4.000000e+000
      vertex  7.029995e-001  1.018471e+000  7.000000e+000
    endloop
  endfacet
  facet normal  3.291066e-001  9.405328e-001  8.418315e-002
    outer loop
      vertex  6.508256e-001  1.351453e+000  4.000000e+000
      vertex  3.337814e-001  1.462392e+000  4.000000e+000
      vertex  4.388356e-001  1.157114e+000  7.000000e+000
    endloop
  endfacet
  facet normal  4.628441e-001  8.818759e-001  8.983371e-002
    outer loop
      vertex  7.029995e-001  1.018471e+000  7.000000e+000
      vertex  6.508256e-001  1.351453e+000  4.000000e+000
      vertex  4.388356e-001  1.157114e+000  7.000000e+000
    endloop
  endfacet
  facet normal  1.115682e-001  9.901950e-001  8.406154e-002
    outer loop
      vertex  3.337814e-001  1.462392e+000  4.000000e+000
      vertex  9.184851e-017  1.500000e+000  4.000000e+000
      vertex  1.491682e-001  1.228511e+000  7.000000e+000
    endloop
  endfacet
  facet normal  2.383433e-001  9.669967e-001  9.005445e-002
    outer loop
      vertex  4.388356e-001  1.157114e+000  7.000000e+000
      vertex  3.337814e-001  1.462392e+000  4.000000e+000
      vertex  1.491682e-001  1.228511e+000  7.000000e+000
    endloop
  endfacet
  facet normal -1.115682e-001  9.901950e-001  8.406154e-002
    outer loop
      vertex  9.184851e-017  1.500000e+000  4.000000e+000
      vertex -3.337814e-001  1.462392e+000  4.000000e+000
      vertex -1.491682e-001  1.228511e+000  7.000000e+000
    endloop
  endfacet
  facet normal  0.000000e+000  9.959302e-001  9.012803e-002
    outer loop
      vertex  1.491682e-001  1.228511e+000  7.000000e+000
      vertex  9.184851e-017  1.500000e+000  4.000000e+000
      vertex -1.491682e-001  1.228511e+000  7.000000e+000
    endloop
  endfacet
  facet normal -3.291066e-001  9.405328e-001  8.418315e-002
    outer loop
      vertex -3.337814e-001  1.462392e+000  4.000000e+000
      vertex -6.508256e-001  1.351453e+000  4.000000e+000
      vertex -4.388356e-001  1.157114e+000  7.000000e+000
    endloop
  endfacet
  facet normal -2.383433e-001  9.669967e-001  9.005445e-002
    outer loop
      vertex -1.491682e-001  1.228511e+000  7.000000e+000
      vertex -3.337814e-001  1.462392e+000  4.000000e+000
      vertex -4.388356e-001  1.157114e+000  7.000000e+000
    endloop
  endfacet
  facet normal -5.301325e-001  8.437012e-001  8.442631e-002
    outer loop
      vertex -6.508256e-001  1.351453e+000  4.000000e+000
      vertex -9.352347e-001  1.172747e+000  4.000000e+000
      vertex -7.029995e-001  1.018471e+000  7.000000e+000
    endloop
  endfacet
  facet normal -4.628441e-001  8.818759e-001  8.983371e-002
    outer loop
      vertex -4.388356e-001  1.157114e+000  7.000000e+000
      vertex -6.508256e-001  1.351453e+000  4.000000e+000
      vertex -7.029995e-001  1.018471e+000  7.000000e+000
    endloop
  endfacet
  facet normal -7.045604e-001  7.045604e-001  8.479093e-002
    outer loop
      vertex -9.352347e-001  1.172747e+000  4.000000e+000
      vertex -1.172747e+000  9.352347e-001  4.000000e+000
      vertex -9.263075e-001  8.206369e-001  7.000000e+000
    endloop
  endfacet
  facet normal -6.604635e-001  7.455091e-001  8.946587e-002
    outer loop
      vertex -7.029995e-001  1.018471e+000  7.000000e+000
      vertex -9.352347e-001  1.172747e+000  4.000000e+000
      vertex -9.263075e-001  8.206369e-001  7.000000e+000
    endloop
  endfacet
  facet normal -8.436399e-001  5.300940e-001  8.527686e-002
    outer loop
      vertex -1.172747e+000  9.352347e-001  4.000000e+000
      vertex -1.351453e+000  6.508256e-001  4.000000e+000
      vertex -1.095782e+000  5.751107e-001  7.000000e+000
    endloop
  endfacet
  facet normal -8.197216e-001  5.658129e-001  8.895097e-002
    outer loop
      vertex -9.263075e-001  8.206369e-001  7.000000e+000
      vertex -1.172747e+000  9.352347e-001  4.000000e+000
      vertex -1.095782e+000  5.751107e-001  7.000000e+000
    endloop
  endfacet
  facet normal -9.403958e-001  3.290586e-001  8.588391e-002
    outer loop
      vertex -1.351453e+000  6.508256e-001  4.000000e+000
      vertex -1.462392e+000  3.337814e-001  4.000000e+000
      vertex -1.201573e+000  2.961613e-001  7.000000e+000
    endloop
  endfacet
  facet normal -9.313650e-001  3.532201e-001  8.828913e-002
    outer loop
      vertex -1.095782e+000  5.751107e-001  7.000000e+000
      vertex -1.351453e+000  6.508256e-001  4.000000e+000
      vertex -1.201573e+000  2.961613e-001  7.000000e+000
    endloop
  endfacet
  facet normal  0.000000e+000  0.000000e+000 -9.999999e-001
    outer loop
      vertex  1.224647e-016  2.000000e+000  0.000000e+000
      vertex  3.901806e-001  1.961571e+000  0.000000e+000
      vertex -3.901806e-001  1.961571e+000  0.000000e+000
    endloop
  endfacet
  facet normal  0.000000e+000  0.000000e+000 -9.999999e-001
    outer loop
      vertex -3.673940e-016 -2.000000e+000  0.000000e+000
      vertex -3.901806e-001 -1.961571e+000  0.000000e+000
      vertex  3.901806e-001 -1.961571e+000  0.000000e+000
    endloop
  endfacet
  facet normal  0.000000e+000  0.000000e+000 -1.000000e+000
    outer loop
      vertex  3.901806e-001 -1.961571e+000  0.000000e+000
      vertex -3.901806e-001 -1.961571e+000  0.000000e+000
      vertex -7.653669e-001 -1.847759e+000  0.000000e+000
    endloop
  endfacet
  facet normal  0.000000e+000  0.000000e+000 -1.000000e+000
    outer loop
      vertex  3.901806e-001 -1.961571e+000  0.000000e+000
      vertex -7.653669e-001 -1.847759e+000  0.000000e+000
      vertex  7.653669e-001 -1.847759e+000  0.000000e+000
    endloop
  endfacet
  facet normal  0.000000e+000  0.000000e+000 -1.000000e+000
    outer loop
      vertex  7.653669e-001 -1.847759e+000  0.000000e+000
      vertex -7.653669e-001 -1.847759e+000  0.000000e+000
      vertex -1.111140e+000 -1.662939e+000  0.000000e+000
    endloop
  endfacet
  facet normal  0.000000e+000  0.000000e+000 -9.999999e-001
    outer loop
      vertex  7.653669e-001 -1.847759e+000  0.000000e+000
      vertex -1.111140e+000 -1.662939e+000  0.000000e+000
      vertex  1.111140e+000 -1.662939e+000  0.000000e+000
    endloop
  endfacet
  facet normal  0.000000e+000  0.000000e+000 -1.000000e+000
    outer loop
      vertex  1.111140e+000 -1.662939e+000  0.000000e+000
      vertex -1.111140e+000 -1.662939e+000  0.000000e+000
      vertex -1.414214e+000 -1.414214e+000  0.000000e+000
    endloop
  endfacet
  facet normal  0.000000e+000  0.000000e+000 -1.000000e+000
    outer loop
      vertex  1.111140e+000 -1.662939e+000  0.000000e+000
      vertex -1.414214e+000 -1.414214e+000  0.000000e+000
      vertex  1.414214e+000 -1.414214e+000  0.000000e+000
    endloop
  endfacet
  facet normal  0.000000e+000  0.000000e+000 -1.000000e+000
    outer loop
      vertex  1.414214e+000 -1.414214e+000  0.000000e+000
      vertex -1.414214e+000 -1.414214e+000  0.000000e+000
      vertex -1.662939e+000 -1.111140e+000  0.000000e+000
    endloop
  endfacet
  facet normal  0.000000e+000  0.000000e+000 -1.000000e+000
    outer loop
      vertex  1.414214e+000 -1.414214e+000  0.000000e+000
      vertex -1.662939e+000 -1.111140e+000  0.000000e+000
      vertex  1.662939e+000 -1.111140e+000  0.000000e+000
    endloop
  endfacet
  facet normal  0.000000e+000  0.000000e+000 -1.000000e+000
    outer loop
      vertex  1.662939e+000 -1.111140e+000  0.000000e+000
      vertex -1.662939e+000 -1.111140e+000  0.000000e+000
      vertex -1.847759e+000 -7.653669e-001  0.000000e+000
    endloop
  endfacet
  facet normal  0.000000e+000  0.000000e+000 -1.000000e+000
    outer loop
      vertex  1.662939e+000 -1.111140e+000  0.000000e+000
      vertex -1.847759e+000 -7.653669e-001  0.000000e+000
      vertex  1.847759e+000 -7.653669e-001  0.000000e+000
    endloop
  endfacet
  facet normal  0.000000e+000  0.000000e+000 -1.000000e+000
    outer loop
      vertex  1.847759e+000 -7.653669e-001  0.000000e+000
      vertex -1.847759e+000 -7.653669e-001  0.000000e+000
      vertex -1.961571e+000 -3.901806e-001  0.000000e+000
    endloop
  endfacet
  facet normal  0.000000e+000  0.000000e+000 -1.000000e+000
    outer loop
      vertex  1.847759e+000 -7.653669e-001  0.000000e+000
      vertex -1.961571e+000 -3.901806e-001  0.000000e+000
      vertex  1.961571e+000 -3.901806e-001  0.000000e+000
    endloop
  endfacet
  facet normal  0.000000e+000  0.000000e+000 -1.000000e+000
    outer loop
      vertex  1.961571e+000 -3.901806e-001  0.000000e+000
      vertex -1.961571e+000 -3.901806e-001  0.000000e+000
      vertex -2.000000e+000  2.449294e-016  0.000000e+000
    endloop
  endfacet
  facet normal  0.000000e+000  0.000000e+000 -9.999999e-001
    outer loop
      vertex  1.961571e+000 -3.901806e-001  0.000000e+000
      vertex -2.000000e+000  2.449294e-016  0.000000e+000
      vertex  2.000000e+000  0.000000e+000  0.000000e+000
    endloop
  endfacet
  facet normal  0.000000e+000  0.000000e+000 -9.999999e-001
    outer loop
      vertex  2.000000e+000  0.000000e+000  0.000000e+000
      vertex -2.000000e+000  2.449294e-016  0.000000e+000
      vertex -1.961571e+000  3.901806e-001  0.000000e+000
    endloop
  endfacet
  facet normal  0.000000e+000  0.000000e+000 -1.000000e+000
    outer loop
      vertex  2.000000e+000  0.000000e+000  0.000000e+000
      vertex -1.961571e+000  3.901806e-001  0.000000e+000
      vertex  1.961571e+000  3.901806e-001  0.000000e+000
    endloop
  endfacet
  facet normal  0.000000e+000  0.000000e+000 -1.000000e+000
    outer loop
      vertex  1.961571e+000  3.901806e-001  0.000000e+000
      vertex -1.961571e+000  3.901806e-001  0.000000e+000
      vertex -1.847759e+000  7.653669e-001  0.000000e+000
    endloop
  endfacet
  facet normal  0.000000e+000  0.000000e+000 -1.000000e+000
    outer loop
      vertex  1.961571e+000  3.901806e-001  0.000000e+000
      vertex -1.847759e+000  7.653669e-001  0.000000e+000
      vertex  1.847759e+000  7.653669e-001  0.000000e+000
    endloop
  endfacet
  facet normal  0.000000e+000  0.000000e+000 -1.000000e+000
    outer loop
      vertex  1.847759e+000  7.653669e-001  0.000000e+000
      vertex -1.847759e+000  7.653669e-001  0.000000e+000
      vertex -1.662939e+000  1.111140e+000  0.000000e+000
    endloop
  endfacet
  facet normal  0.000000e+000  0.000000e+000 -1.000000e+000
    outer loop
      vertex  1.847759e+000  7.653669e-001  0.000000e+000
      vertex -1.662939e+000  1.111140e+000  0.000000e+000
      vertex  1.662939e+000  1.111140e+000  0.000000e+000
    endloop
  endfacet
  facet normal  0.000000e+000  0.000000e+000 -1.000000e+000
    outer loop
      vertex  1.662939e+000  1.111140e+000  0.000000e+000
      vertex -1.662939e+000  1.111140e+000  0.000000e+000
      vertex -1.414214e+000  1.414214e+000  0.000000e+000
    endloop
  endfacet
  facet normal  0.000000e+000  0.000000e+000 -1.000000e+000
    outer loop
      vertex  1.662939e+000  1.111140e+000  0.000000e+000
      vertex -1.414214e+000  1.414214e+000  0.000000e+000
      vertex  1.414214e+000  1.414214e+000  0.000000e+000
    endloop
  endfacet
  facet normal  0.000000e+000  0.000000e+000 -1.000000e+000
    outer loop
      vertex  1.414214e+000  1.414214e+000  0.000000e+000
      vertex -1.414214e+000  1.414214e+000  0.000000e+000
      vertex -1.111140e+000  1.662939e+000  0.000000e+000
    endloop
  endfacet
  facet normal  0.000000e+000  0.000000e+000 -1.000000e+000
    outer loop
      vertex  1.414214e+000  1.414214e+000  0.000000e+000
      vertex -1.111140e+000  1.662939e+000  0.000000e+000
      vertex  1.111140e+000  1.662939e+000  0.000000e+000
    endloop
  endfacet
  facet normal  0.000000e+000  0.000000e+000 -9.999999e-001
    outer loop
      vertex  1.111140e+000  1.662939e+000  0.000000e+000
      vertex -1.111140e+000  1.662939e+000  0.000000e+000
      vertex -7.653669e-001  1.847759e+000  0.000000e+000
    endloop
  endfacet
  facet normal  0.000000e+000  0.000000e+000 -1.000000e+000
    outer loop
      vertex  1.111140e+000  1.662939e+000  0.000000e+000
      vertex -7.653669e-001  1.847759e+000  0.000000e+000
      vertex  7.653669e-001  1.847759e+000  0.000000e+000
    endloop
  endfacet
  facet normal  0.000000e+000  0.000000e+000 -1.000000e+000
    outer loop
      vertex  7.653669e-001  1.847759e+000  0.000000e+000
      vertex -7.653669e-001  1.847759e+000  0.000000e+000
      vertex -3.901806e-001  1.961571e+000  0.000000e+000
    endloop
  endfacet
  facet normal  0.000000e+000  0.000000e+000 -1.000000e+000
    outer loop
      vertex  7.653669e-001  1.847759e+000  0.000000e+000
      vertex -3.901806e-001  1.961571e+000  0.000000e+000
      vertex  3.901806e-001  1.961571e+000  0.000000e+000
    endloop
  endfacet
  facet normal  9.951847e-001 -9.801729e-002  0.000000e+000
    outer loop
      vertex  2.000000e+000  0.000000e+000  0.000000e+000
      vertex  2.000000e+000  0.000000e+000  4.000000e+000
      vertex  1.961571e+000 -3.901806e-001  0.000000e+000
    endloop
  endfacet
  facet normal  9.951847e-001 -9.801729e-002  0.000000e+000
    outer loop
      vertex  1.961571e+000 -3.901806e-001  0.000000e+000
      vertex  2.000000e+000  0.000000e+000  4.000000e+000
      vertex  1.961571e+000 -3.901806e-001  4.000000e+000
    endloop
  endfacet
  facet normal  9.569404e-001 -2.902847e-001  0.000000e+000
    outer loop
      vertex  1.961571e+000 -3.901806e-001  0.000000e+000
      vertex  1.961571e+000 -3.901806e-001  4.000000e+000
      vertex  1.847759e+000 -7.653669e-001  0.000000e+000
    endloop
  endfacet
  facet normal  9.569404e-001 -2.902847e-001  0.000000e+000
    outer loop
      vertex  1.847759e+000 -7.653669e-001  0.000000e+000
      vertex  1.961571e+000 -3.901806e-001  4.000000e+000
      vertex  1.847759e+000 -7.653669e-001  4.000000e+000
    endloop
  endfacet
  facet normal  8.819214e-001 -4.713967e-001  0.000000e+000
    outer loop
      vertex  1.847759e+000 -7.653669e-001  0.000000e+000
      vertex  1.847759e+000 -7.653669e-001  4.000000e+000
      vertex  1.662939e+000 -1.111140e+000  0.000000e+000
    endloop
  endfacet
  facet normal  8.819214e-001 -4.713967e-001  0.000000e+000
    outer loop
      vertex  1.662939e+000 -1.111140e+000  0.000000e+000
      vertex  1.847759e+000 -7.653669e-001  4.000000e+000
      vertex  1.662939e+000 -1.111140e+000  4.000000e+000
    endloop
  endfacet
  facet normal  7.730104e-001 -6.343933e-001  0.000000e+000
    outer loop
      vertex  1.662939e+000 -1.111140e+000  0.000000e+000
      vertex  1.662939e+000 -1.111140e+000  4.000000e+000
      vertex  1.414214e+000 -1.414214e+000  0.000000e+000
    endloop
  endfacet
  facet normal  7.730104e-001 -6.343933e-001  0.000000e+000
    outer loop
      vertex  1.414214e+000 -1.414214e+000  0.000000e+000
      vertex  1.662939e+000 -1.111140e+000  4.000000e+000
      vertex  1.414214e+000 -1.414214e+000  4.000000e+000
    endloop
  endfacet
  facet normal  6.343933e-001 -7.730104e-001  0.000000e+000
    outer loop
      vertex  1.414214e+000 -1.414214e+000  0.000000e+000
      vertex  1.414214e+000 -1.414214e+000  4.000000e+000
      vertex  1.111140e+000 -1.662939e+000  0.000000e+000
    endloop
  endfacet
  facet normal  6.343933e-001 -7.730104e-001  0.000000e+000
    outer loop
      vertex  1.111140e+000 -1.662939e+000  0.000000e+000
      vertex  1.414214e+000 -1.414214e+000  4.000000e+000
      vertex  1.111140e+000 -1.662939e+000  4.000000e+000
    endloop
  endfacet
  facet normal  4.713967e-001 -8.819214e-001  0.000000e+000
    outer loop
      vertex  1.111140e+000 -1.662939e+000  0.000000e+000
      vertex  1.111140e+000 -1.662939e+000  4.000000e+000
      vertex  7.653669e-001 -1.847759e+000  0.000000e+000
    endloop
  endfacet
  facet normal  4.713967e-001 -8.819214e-001  0.000000e+000
    outer loop
      vertex  7.653669e-001 -1.847759e+000  0.000000e+000
      vertex  1.111140e+000 -1.662939e+000  4.000000e+000
      vertex  7.653669e-001 -1.847759e+000  4.000000e+000
    endloop
  endfacet
  facet normal  2.902847e-001 -9.569404e-001  0.000000e+000
    outer loop
      vertex  7.653669e-001 -1.847759e+000  0.000000e+000
      vertex  7.653669e-001 -1.847759e+000  4.000000e+000
      vertex  3.901806e-001 -1.961571e+000  0.000000e+000
    endloop
  endfacet
  facet normal  2.902847e-001 -9.569404e-001  0.000000e+000
    outer loop
      vertex  3.901806e-001 -1.961571e+000  0.000000e+000
      vertex  7.653669e-001 -1.847759e+000  4.000000e+000
      vertex  3.901806e-001 -1.961571e+000  4.000000e+000
    endloop
  endfacet
  facet normal  9.801729e-002 -9.951847e-001  0.000000e+000
    outer loop
      vertex  3.901806e-001 -1.961571e+000  0.000000e+000
      vertex  3.901806e-001 -1.961571e+000  4.000000e+000
      vertex -3.673940e-016 -2.000000e+000  0.000000e+000
    endloop
  endfacet
  facet normal  9.801729e-002 -9.951847e-001  0.000000e+000
    outer loop
      vertex -3.673940e-016 -2.000000e+000  0.000000e+000
      vertex  3.901806e-001 -1.961571e+000  4.000000e+000
      vertex -3.673940e-016 -2.000000e+000  4.000000e+000
    endloop
  endfacet
  facet normal -9.801729e-002 -9.951847e-001  -0.000000e+000
    outer loop
      vertex -3.673940e-016 -2.000000e+000  0.000000e+000
      vertex -3.673940e-016 -2.000000e+000  4.000000e+000
      vertex -3.901806e-001 -1.961571e+000  0.000000e+000
    endloop
  endfacet
  facet normal -9.801729e-002 -9.951847e-001  0.000000e+000
    outer loop
      vertex -3.901806e-001 -1.961571e+000  0.000000e+000
      vertex -3.673940e-016 -2.000000e+000  4.000000e+000
      vertex -3.901806e-001 -1.961571e+000  4.000000e+000
    endloop
  endfacet
  facet normal -2.902847e-001 -9.569404e-001  -0.000000e+000
    outer loop
      vertex -3.901806e-001 -1.961571e+000  0.000000e+000
      vertex -3.901806e-001 -1.961571e+000  4.000000e+000
      vertex -7.653669e-001 -1.847759e+000  0.000000e+000
    endloop
  endfacet
  facet normal -2.902847e-001 -9.569404e-001  0.000000e+000
    outer loop
      vertex -7.653669e-001 -1.847759e+000  0.000000e+000
      vertex -3.901806e-001 -1.961571e+000  4.000000e+000
      vertex -7.653669e-001 -1.847759e+000  4.000000e+000
    endloop
  endfacet
  facet normal -4.713967e-001 -8.819214e-001  -0.000000e+000
    outer loop
      vertex -7.653669e-001 -1.847759e+000  0.000000e+000
      vertex -7.653669e-001 -1.847759e+000  4.000000e+000
      vertex -1.111140e+000 -1.662939e+000  0.000000e+000
    endloop
  endfacet
  facet normal -4.713967e-001 -8.819214e-001  0.000000e+000
    outer loop
      vertex -1.111140e+000 -1.662939e+000  0.000000e+000
      vertex -7.653669e-001 -1.847759e+000  4.000000e+000
      vertex -1.111140e+000 -1.662939e+000  4.000000e+000
    endloop
  endfacet
  facet normal -6.343933e-001 -7.730104e-001  -0.000000e+000
    outer loop
      vertex -1.111140e+000 -1.662939e+000  0.000000e+000
      vertex -1.111140e+000 -1.662939e+000  4.000000e+000
      vertex -1.414214e+000 -1.414214e+000  0.000000e+000
    endloop
  endfacet
  facet normal -6.343933e-001 -7.730104e-001  0.000000e+000
    outer loop
      vertex -1.414214e+000 -1.414214e+000  0.000000e+000
      vertex -1.111140e+000 -1.662939e+000  4.000000e+000
      vertex -1.414214e+000 -1.414214e+000  4.000000e+000
    endloop
  endfacet
  facet normal -7.730104e-001 -6.343933e-001  -0.000000e+000
    outer loop
      vertex -1.414214e+000 -1.414214e+000  0.000000e+000
      vertex -1.414214e+000 -1.414214e+000  4.000000e+000
      vertex -1.662939e+000 -1.111140e+000  0.000000e+000
    endloop
  endfacet
  facet normal -7.730104e-001 -6.343933e-001  0.000000e+000
    outer loop
      vertex -1.662939e+000 -1.111140e+000  0.000000e+000
      vertex -1.414214e+000 -1.414214e+000  4.000000e+000
      vertex -1.662939e+000 -1.111140e+000  4.000000e+000
    endloop
  endfacet
  facet normal -8.819214e-001 -4.713967e-001  -0.000000e+000
    outer loop
      vertex -1.662939e+000 -1.111140e+000  0.000000e+000
      vertex -1.662939e+000 -1.111140e+000  4.000000e+000
      vertex -1.847759e+000 -7.653669e-001  0.000000e+000
    endloop
  endfacet
  facet normal -8.819214e-001 -4.713967e-001  0.000000e+000
    outer loop
      vertex -1.847759e+000 -7.653669e-001  0.000000e+000
      vertex -1.662939e+000 -1.111140e+000  4.000000e+000
      vertex -1.847759e+000 -7.653669e-001  4.000000e+000
    endloop
  endfacet
  facet normal -9.569404e-001 -2.902847e-001  -0.000000e+000
    outer loop
      vertex -1.847759e+000 -7.653669e-001  0.000000e+000
      vertex -1.847759e+000 -7.653669e-001  4.000000e+000
      vertex -1.961571e+000 -3.901806e-001  0.000000e+000
    endloop
  endfacet
  facet normal -9.569404e-001 -2.902847e-001  0.000000e+000
    outer loop
      vertex -1.961571e+000 -3.901806e-001  0.000000e+000
      vertex -1.847759e+000 -7.653669e-001  4.000000e+000
      vertex -1.961571e+000 -3.901806e-001  4.000000e+000
    endloop
  endfacet
  facet normal -9.951847e-001 -9.801729e-002  -0.000000e+000
    outer loop
      vertex -1.961571e+000 -3.901806e-001  0.000000e+000
      vertex -1.961571e+000 -3.901806e-001  4.000000e+000
      vertex -2.000000e+000  2.449294e-016  0.000000e+000
    endloop
  endfacet
  facet normal -9.951847e-001 -9.801729e-002  0.000000e+000
    outer loop
      vertex -2.000000e+000  2.449294e-016  0.000000e+000
      vertex -1.961571e+000 -3.901806e-001  4.000000e+000
      vertex -2.000000e+000  2.449294e-016  4.000000e+000
    endloop
  endfacet
  facet normal -9.951847e-001  9.801729e-002  0.000000e+000
    outer loop
      vertex -2.000000e+000  2.449294e-016  0.000000e+000
      vertex -2.000000e+000  2.449294e-016  4.000000e+000
      vertex -1.961571e+000  3.901806e-001  0.000000e+000
    endloop
  endfacet
  facet normal -9.951847e-001  9.801729e-002  0.000000e+000
    outer loop
      vertex -1.961571e+000  3.901806e-001  0.000000e+000
      vertex -2.000000e+000  2.449294e-016  4.000000e+000
      vertex -1.961571e+000  3.901806e-001  4.000000e+000
    endloop
  endfacet
  facet normal -9.569404e-001  2.902847e-001  0.000000e+000
    outer loop
      vertex -1.961571e+000  3.901806e-001  0.000000e+000
      vertex -1.961571e+000  3.901806e-001  4.000000e+000
      vertex -1.847759e+000  7.653669e-001  0.000000e+000
    endloop
  endfacet
  facet normal -9.569404e-001  2.902847e-001  0.000000e+000
    outer loop
      vertex -1.847759e+000  7.653669e-001  0.000000e+000
      vertex -1.961571e+000  3.901806e-001  4.000000e+000
      vertex -1.847759e+000  7.653669e-001  4.000000e+000
    endloop
  endfacet
  facet normal -8.819214e-001  4.713967e-001  0.000000e+000
    outer loop
      vertex -1.847759e+000  7.653669e-001  0.000000e+000
      vertex -1.847759e+000  7.653669e-001  4.000000e+000
      vertex -1.662939e+000  1.111140e+000  0.000000e+000
    endloop
  endfacet
  facet normal -8.819214e-001  4.713967e-001  0.000000e+000
    outer loop
      vertex -1.662939e+000  1.111140e+000  0.000000e+000
      vertex -1.847759e+000  7.653669e-001  4.000000e+000
      vertex -1.662939e+000  1.111140e+000  4.000000e+000
    endloop
  endfacet
  facet normal -7.730104e-001  6.343933e-001  0.000000e+000
    outer loop
      vertex -1.662939e+000  1.111140e+000  0.000000e+000
      vertex -1.662939e+000  1.111140e+000  4.000000e+000
      vertex -1.414214e+000  1.414214e+000  0.000000e+000
    endloop
  endfacet
  facet normal -7.730104e-001  6.343933e-001  0.000000e+000
    outer loop
      vertex -1.414214e+000  1.414214e+000  0.000000e+000
      vertex -1.662939e+000  1.111140e+000  4.000000e+000
      vertex -1.414214e+000  1.414214e+000  4.000000e+000
    endloop
  endfacet
  facet normal -6.343933e-001  7.730104e-001  0.000000e+000
    outer loop
      vertex -1.414214e+000  1.414214e+000  0.000000e+000
      vertex -1.414214e+000  1.414214e+000  4.000000e+000
      vertex -1.111140e+000  1.662939e+000  0.000000e+000
    endloop
  endfacet
  facet normal -6.343933e-001  7.730104e-001  0.000000e+000
    outer loop
      vertex -1.111140e+000  1.662939e+000  0.000000e+000
      vertex -1.414214e+000  1.414214e+000  4.000000e+000
      vertex -1.111140e+000  1.662939e+000  4.000000e+000
    endloop
  endfacet
  facet normal -4.713967e-001  8.819214e-001  0.000000e+000
    outer loop
      vertex -1.111140e+000  1.662939e+000  0.000000e+000
      vertex -1.111140e+000  1.662939e+000  4.000000e+000
      vertex -7.653669e-001  1.847759e+000  0.000000e+000
    endloop
  endfacet
  facet normal -4.713967e-001  8.819214e-001  0.000000e+000
    outer loop
      vertex -7.653669e-001  1.847759e+000  0.000000e+000
      vertex -1.111140e+000  1.662939e+000  4.000000e+000
      vertex -7.653669e-001  1.847759e+000  4.000000e+000
    endloop
  endfacet
  facet normal -2.902847e-001  9.569404e-001  0.000000e+000
    outer loop
      vertex -7.653669e-001  1.847759e+000  0.000000e+000
      vertex -7.653669e-001  1.847759e+000  4.000000e+000
      vertex -3.901806e-001  1.961571e+000  0.000000e+000
    endloop
  endfacet
  facet normal -2.902847e-001  9.569404e-001  0.000000e+000
    outer loop
      vertex -3.901806e-001  1.961571e+000  0.000000e+000
      vertex -7.653669e-001  1.847759e+000  4.000000e+000
      vertex -3.901806e-001  1.961571e+000  4.000000e+000
    endloop
  endfacet
  facet normal -9.801729e-002  9.951847e-001  0.000000e+000
    outer loop
      vertex -3.901806e-001  1.961571e+000  0.000000e+000
      vertex -3.901806e-001  1.961571e+000  4.000000e+000
      vertex  1.224647e-016  2.000000e+000  0.000000e+000
    endloop
  endfacet
  facet normal -9.801729e-002  9.951847e-001  0.000000e+000
    outer loop
      vertex  1.224647e-016  2.000000e+000  0.000000e+000
      vertex -3.901806e-001  1.961571e+000  4.000000e+000
      vertex  1.224647e-016  2.000000e+000  4.000000e+000
    endloop
  endfacet
  facet normal  9.801729e-002  9.951847e-001  0.000000e+000
    outer loop
      vertex  1.224647e-016  2.000000e+000  0.000000e+000
      vertex  1.224647e-016  2.000000e+000  4.000000e+000
      vertex  3.901806e-001  1.961571e+000  0.000000e+000
    endloop
  endfacet
  facet normal  9.801729e-002  9.951847e-001  -0.000000e+000
    outer loop
      vertex  3.901806e-001  1.961571e+000  0.000000e+000
      vertex  1.224647e-016  2.000000e+000  4.000000e+000
      vertex  3.901806e-001  1.961571e+000  4.000000e+000
    endloop
  endfacet
  facet normal  2.902847e-001  9.569404e-001  0.000000e+000
    outer loop
      vertex  3.901806e-001  1.961571e+000  0.000000e+000
      vertex  3.901806e-001  1.961571e+000  4.000000e+000
      vertex  7.653669e-001  1.847759e+000  0.000000e+000
    endloop
  endfacet
  facet normal  2.902847e-001  9.569404e-001  -0.000000e+000
    outer loop
      vertex  7.653669e-001  1.847759e+000  0.000000e+000
      vertex  3.901806e-001  1.961571e+000  4.000000e+000
      vertex  7.653669e-001  1.847759e+000  4.000000e+000
    endloop
  endfacet
  facet normal  4.713967e-001  8.819214e-001  0.000000e+000
    outer loop
      vertex  7.653669e-001  1.847759e+000  0.000000e+000
      vertex  7.653669e-001  1.847759e+000  4.000000e+000
      vertex  1.111140e+000  1.662939e+000  0.000000e+000
    endloop
  endfacet
  facet normal  4.713967e-001  8.819214e-001  -0.000000e+000
    outer loop
      vertex  1.111140e+000  1.662939e+000  0.000000e+000
      vertex  7.653669e-001  1.847759e+000  4.000000e+000
      vertex  1.111140e+000  1.662939e+000  4.000000e+000
    endloop
  endfacet
  facet normal  6.343933e-001  7.730104e-001  0.000000e+000
    outer loop
      vertex  1.111140e+000  1.662939e+000  0.000000e+000
      vertex  1.111140e+000  1.662939e+000  4.000000e+000
      vertex  1.414214e+000  1.414214e+000  0.000000e+000
    endloop
  endfacet
  facet normal  6.343933e-001  7.730104e-001  -0.000000e+000
    outer loop
      vertex  1.414214e+000  1.414214e+000  0.000000e+000
      vertex  1.111140e+000  1.662939e+000  4.000000e+000
      vertex  1.414214e+000  1.414214e+000  4.000000e+000
    endloop
  endfacet
  facet normal  7.730104e-001  6.343933e-001  0.000000e+000
    outer loop
      vertex  1.414214e+000  1.414214e+000  0.000000e+000
      vertex  1.414214e+000  1.414214e+000  4.000000e+000
      vertex  1.662939e+000  1.111140e+000  0.000000e+000
    endloop
  endfacet
  facet normal  7.730104e-001  6.343933e-001  -0.000000e+000
    outer loop
      vertex  1.662939e+000  1.111140e+000  0.000000e+000
      vertex  1.414214e+000  1.414214e+000  4.000000e+000
      vertex  1.662939e+000  1.111140e+000  4.000000e+000
    endloop
  endfacet
  facet normal  8.819214e-001  4.713967e-001  0.000000e+000
    outer loop
      vertex  1.662939e+000  1.111140e+000  0.000000e+000
      vertex  1.662939e+000  1.111140e+000  4.000000e+000
      vertex  1.847759e+000  7.653669e-001  0.000000e+000
    endloop
  endfacet
  facet normal  8.819214e-001  4.713967e-001  -0.000000e+000
    outer loop
      vertex  1.847759e+000  7.653669e-001  0.000000e+000
      vertex  1.662939e+000  1.111140e+000  4.000000e+000
      vertex  1.847759e+000  7.653669e-001  4.000000e+000
    endloop
  endfacet
  facet normal  9.569404e-001  2.902847e-001  0.000000e+000
    outer loop
      vertex  1.847759e+000  7.653669e-001  0.000000e+000
      vertex  1.847759e+000  7.653669e-001  4.000000e+000
      vertex  1.961571e+000  3.901806e-001  0.000000e+000
    endloop
  endfacet
  facet normal  9.569404e-001  2.902847e-001  -0.000000e+000
    outer loop
      vertex  1.961571e+000  3.901806e-001  0.000000e+000
      vertex  1.847759e+000  7.653669e-001  4.000000e+000
      vertex  1.961571e+000  3.901806e-001  4.000000e+000
    endloop
  endfacet
  facet normal  9.951847e-001  9.801729e-002  0.000000e+000
    outer loop
      vertex  1.961571e+000  3.901806e-001  0.000000e+000
      vertex  1.961571e+000  3.901806e-001  4.000000e+000
      vertex  2.000000e+000  0.000000e+000  0.000000e+000
    endloop
  endfacet
  facet normal  9.951847e-001  9.801729e-002  -0.000000e+000
    outer loop
      vertex  2.000000e+000  0.000000e+000  0.000000e+000
      vertex  1.961571e+000  3.901806e-001  4.000000e+000
      vertex  2.000000e+000  0.000000e+000  4.000000e+000
    endloop
  endfacet
endsolid CATIA STL
